<?xml version="1.0" encoding="UTF-8"?>
<svg id="Layer_2" data-name="Layer 2" xmlns="http://www.w3.org/2000/svg" viewBox="0 0 235.28 241.75">
  <defs>
    <style>
      .cls-1 {
        fill: #dedede;
      }
    </style>
  </defs>
  <g id="Layer_1-2" data-name="Layer 1">
    <g id="nXARGr">
      <g>
        <path class="cls-1" d="M187.07,183.76c5.58-3.77,25,2,20,13,0,3-2.72,5.36-6.04,7.43-3.33,2.07-6.96,3.57-10.79,4.6-7.09,1.91-14.29,3.57-21.18,6.06-4.01,1.45-7.97,1.5-12.02,2.03-8.47,1.1-16.87,.25-25.27-.22-2.11-.12-3.94,.76-6.17,.52-4.26-.46-8.34-.92-12.67-4.5,1.08,5.43,1.06,9.62,2.85,13.55,1.71,3.75,5.3,5.26,8.57,6.38,6.03,2.06,12.52,2.3,18.81,3.32,9.87,1.59,19.7,.95,29.52,.71,9.51-.23,18.98-1.53,28.45-2.63,3.95-.46,7.67-1.43,11.48-2.24,6.65-1.41,11.41-5.89,16.39-9.94,1.59-1.29,2.22-3.45,2.18-5.8-.17-8.83,.29-17.68-.23-26.49-.47-8.05-2.85-15.61-8.17-22.11-2.98-3.65-5.57-7.73-7.68-11.94-3.35-6.71-7.83-12.65-11.76-18.97-4.05-6.51-8.01-13.03-13.12-18.84-2.35-2.68-5.17-4.53-8.08-6.26-3.89-2.33-8.07-4.18-12.05-6.38-6.05-3.35-12.93-5.32-19.89-6.2-5.53-.7-11.1-1.77-16.25-3.41-7.21-2.3-14.58-2.3-21.83-3.57-9.33-1.63-18.75-2.81-27.92-5.21-2.93-.77-5.46-2.15-6.34-5.93-1.02-4.42-2.74-8.78-4.85-12.81-3.73-7.09-2.98-14.55-2.63-22.01,.1-2.15,1.99-2.93,3.54-1.55,2.08,1.85,4.25,1.41,6.63,1.3-.36-1.71-1.45-2.34-2.92-2.93-4.24-1.71-6.95-4.48-6.62-9.57,.27-4.23-2.45-6.34-5.88-8.6-5-3.3-10.93-4.05-15.93-7.08-1.96-1.19-4.22-1.28-6.13-.1-3.67,2.26-6.86,1.85-10.54-.32-3.2-1.89-7.09-2.55-9.57-5.75-.39-.5-1.53-.39-2.32-.59-4.49-1.14-6.34-2.01-9.26-4.41-.87,3.89-.01,7.55,.68,11.24,.34,1.8,2.04,2,3.05,2.99,1.2,1.18,1.67,2.06-.46,3.34-6.05,3.61-6.31,5.15-3.74,11.86,3.23,8.4,5.95,16.98,9.6,25.22,1.01,2.28,.82,4.75-.16,7.22-4.12,10.38-6.09,21.15-5.26,32.34,.18,2.4-.89,4.57-.97,6.86-.28,7.32,1.52,14.2,4.64,20.81,1.46,3.09,2.45,6.4,3.71,9.59,2.27,5.72,4.34,11.47,10,15.09,2.44,1.56,3.15,4.87,5.15,7.16,4.81,5.49,10.81,9.49,16.39,14.01,1.52,1.23,3.88,1.41,5.96,1.86,6.22,1.35,9.77,3.99,7.47,12.16-2.98,10.57-7.53,20.45-12.1,30.35,7.35,3.55,13.17,1.92,17.43-4.99,4.04-6.56,8.39-12.94,11.73-19.93,2.57-5.39,4.29-11.07,6.13-16.71,.65-2.01,1.13-2.37,2.86-1.16,1.85,1.3,2.23,3.09,2.01,5.08-.47,4.27-.16,5.21,3.63,5.98,4.34,.89,8.58,2.64,13.13,2.1,2.06-.25,3.69,1.57,5.76,.97l.1,.09c.33,.33,.65,.25,.97-.02,1.3,.77,2.45,1.84,4.07,1.95,1.68,.26,2.97,1.29,4.4,2.1,5.48,3.12,11.56,4.46,17.73,4.24,10.86-.38,21.49-2.14,31.41-7.13,3.81-1.92,7.91-10.86,6.14-14.71-.2-.43-.62-.76-.93-1.14-1.98-2.41-3.96-4.83-5.94-7.24l.21-.19-.19,.21c-2.46-.28-4.25-2.6-6.9-2.3-4.11-1.55-8.17-.97-12.18,.39-2.18,.73-3.48,.31-3.9-2.19-.55-3.29-1.53-6.45-3.06-9.46-.85-1.68-1.48-3.93,1-4.53,2.22-.53,3.67,1.18,3.99,3.45,.28,2,.03,3.97-.47,5.93-.42,1.64-.75,3.47,.73,4.66,1.83,1.47,3.41,.21,4.86-.99,3.55-3.86,7.91-1.96,11.96-1.48,1.45,.17,3.05,1.04,4.16,2.32l-.21,.19,.19-.21c8.48,5.8,12.74,13.68,11.95,24.1-.1,1.3-.65,2.16-1.48,2.98-6.11,6.03-13.18,9.67-21.98,10.15-4.57,.25-9.06,.78-13.62-.08-1.28-.24-2.8-.37-3.95,.09-3.74,1.48-7.34,.96-10.99-.16-3-.99-6-1.98-9-2.97-.56-.63-1.32-.81-2.11-.93-3.14-1.5-6.56-2.06-9.86-3.04-1.38-.03-2.81-2.41-4.14,.09-3.91-.37-7.81-.76-11.57-2.01-.76-.25-1.58-.12-2.3-.71-3.23-2.62-4.25-2.54-5.8,1.32-.68,1.7-1.46,2.72-2.93,3.65-3.26,2.06-4.37,5.9-5.64,9.02-1.61,3.98-4.4,7.01-6.31,10.67-.37,.71-1.28,1.11-1.22,2.47,2.51,1.01,4.26,2.98,4.88,6.33-5.5-1.08-10.08,1.24-14.88,2.98-3.62,1.31-7.39-.45-11.1-.82-3.96-.4-8.02-.58-11.96,.26-2.71,.58-4.53-.2-5.91-3.08,3.39-2.03,6.79-4.21,10.33-6.14,2.67-1.45,4.68-3.05,5.7-6.24,1.35-4.21,3.43-8.18,2.8-12.79-.18-1.3,.58-2.27,1.18-3.18,3.02-4.59,3.66-10.07,6-14.76-12.54-5.77-22.8-13.78-31.08-24.38-1.73-2.22-4.05-3.96-5.93-6.07-3.66-4.09-6.25-8.76-7.19-14.25-.71-4.13-3.98-7.14-4.93-11.17-1.8-7.64-4.02-15.15-2.46-23.26,.59-3.06,.48-6.44,.34-9.65-.28-6.35,1.61-12.4,2.07-18.62,.12-1.66,1.41-2.57,2.07-3.86,2.73-5.39,1.21-10.67-.59-15.6-2.12-5.81-4.96-11.4-7.41-17.09C4.56,30.92,2.96,24.52,.3,18.53c-.91-2.03,.45-4.02,1.61-5.38,.96-1.14,2.76-.27,4.03,.7,.5,.38,1.12,.69,1.89,.45,.44-2.29,.04-4.46-.52-6.77-.49-2.03-1.28-4.71,1.37-6.29,2.6-1.55,5.14-1.83,7.69,.24,5.42,4.41,12.22,6.71,17.46,11.43,1.65,1.49,3.8,1.28,5.54,.17,4.27-2.73,7.87-1.3,12.36,.2,7.79,2.61,14.04,7.53,21.04,11.28,2.06,1.11,2.53,2.4,2.22,4.35-.97,6.15-.54,7.13,4.69,10.04,1.59,.89,3.1,1.84,4.34,3.21,2,2.21,4.17,4.01,7.27,4.85,2.91,.79,4.98,2.77,3.25,6.65-5.18-1.77-10.45-3.25-16.11-3.01-2.63,.11-3.95,.77-4.42,3.44-.55,3.12-.31,6.12,.9,8.96,1.72,4.06,3.72,8.02,4.45,12.4,.71,4.24,3.78,6.12,7.28,7.24,6.68,2.13,13.42,4.28,20.57,4.02,1.6-.06,2.9,.57,4.25,1.11,1.57,.63,3.14,1.17,4.83,.92,7.45-1.1,14.22,2.07,21.29,3.33,4.83,.86,9.65,1.83,14.42,2.86,7.45,1.6,14.99,3.34,21.71,7.38,3.62,2.18,7.35,4.13,11.33,5.79,4.39,1.82,7.64,6,10.46,9.8,8.57,11.56,16.57,23.52,23.4,36.23,2.4,4.46,5.85,8.25,8.48,12.62,5.53,9.21,8.12,18.92,6.73,29.65-.73,5.65,1.1,11.14,1.17,16.79,.06,4.82-1.73,8.93-3.58,13.03-.75,1.67-2.36,2.94-3.01,4.93-.66,2.02-2.5,3.09-4.81,2.54-1.69-.41-3.37-.36-4.82,.52-6.65,4.02-14.29,3.38-21.52,4.44-9.61,1.4-19.34,1.92-28.99,3.06-2.39,.28-4.51-1.07-6.73-.65-6.46,1.21-12.95-.12-19.22-.69-8.15-.74-16.61-2.31-24.13-6.04-4.05-2.01-6.12-6.38-7.24-10.74-1.37-5.3-1.46-10.75-.98-16.48,2.02-.55,3.98-.3,6.17-.27,1.09,1.63,.38,4.29,2.65,5.41,1.92,.95,3.92,.31,5.87,.52,6.99,.76,13.99-.17,21.07,.43,5.27,.44,11.13-.39,16.7-.84,2.12-.17,4.06-1.97,6.21-2.55,6.75-1.84,13.37-4.15,20.35-5.21,5.97-.9,16.5-7.2,10.9-14.24-1.84-2.31-5.21-3.26-7.98-2.25-.89,.33-4.2,1.45-5.13,1.65s.51-2.2,0-3"/>
        <path class="cls-1" d="M160.06,162.83c-1.45,1.2-3.03,2.46-4.86,.99-1.49-1.19-1.15-3.02-.73-4.66,.5-1.96,.75-3.94,.47-5.93-.32-2.27-1.77-3.98-3.99-3.45-2.48,.6-1.85,2.85-1,4.53,1.53,3,2.5,6.17,3.06,9.46,.42,2.5,1.72,2.92,3.9,2.19,4.01-1.35,8.07-1.94,12.18-.39-5.15-.07-10.61-.27-14.84,2.77-4.18,3-8.5,2.98-12.69,1.94-6.12-1.51-11.26-.37-16.26,3.15-6.15,4.34-7.21,12.81-2.14,18.29-1.61-.11-2.77-1.18-4.07-1.95l-.98-1.02c-2.92-10.04-.18-15.67,7.66-20.08,5.44-3.06,10.81-3.27,16.42-1.55,3.35,1.02,7.26,1.58,9.29-.81,1.95-2.31-.52-5.83-1.46-8.71-.55-1.69-1.69-3.1-2.03-4.96-.52-2.79,.94-4.05,3.14-4.72,1.53-.47,4.85,2.14,4.82,3.85-.05,2.61,.71,5.31-.48,7.84-.62,1.32-.68,2.52,.42,3.76,1.38,.13,2.69-.98,4.16-.52Zm-10.4,6.21h-5.77c2.13,.71,4.23,1.04,6.52-.6-.12,.11-.23,.21-.35,.32,.15-.03,.32-.04,.46-.1,.11-.05,.18-.17,.27-.25-.13,.01-.25,.02-1.13,.64Zm-28.27,5.28c-4.08,3.5-3.4,7.5-2.67,11.52-.22-3.91,.91-7.52,2.99-12.32-.18,.26-.38,.5-.52,.77-.28,.55-.16,.64,.27,.2,.22-.22,.39-.49,.58-.74-.11-.08-.21-.15-.65,.57Z"/>
        <path class="cls-1" d="M127.08,197.76c3,.99,6,1.98,9,2.97-3.75,.26-7.44,.32-10.17-2.93,.39-.01,.78-.03,1.16-.04Z"/>
        <path class="cls-1" d="M110.97,193.87c1.33-2.5,2.76-.12,4.14-.09-.84,1.12-2.02,.81-3.14,.73-.33-.26-.67-.52-1-.78v.14Z"/>
        <path class="cls-1" d="M127.08,197.76c-.39,.01-.78,.03-1.16,.04-.56-.09-.85-.44-.95-.97,.79,.12,1.55,.3,2.11,.93Z"/>
        <path class="cls-1" d="M118.12,188.75l.98,1.02h-.01c-.32,0-.64,.01-.96,.02l-.1-.09c.03-.32,.06-.64,.1-.95Z"/>
        <path class="cls-1" d="M110.97,193.73c.33,.26,.67,.52,1,.78-.66,.16-.86-.27-1-.78Z"/>
        <polygon class="cls-1" points="176.15 163.65 175.97 163.86 176.18 163.68 176.15 163.65"/>
        <polygon class="cls-1" points="175.99 167.87 176.17 167.66 175.96 167.85 175.99 167.87"/>
        <path class="cls-1" d="M118.12,189.79c.32,0,.64-.02,.96-.03-.31,.29-.63,.36-.96,.03Z"/>
        <path class="cls-1" d="M121.4,174.32c-1.76,3.99-2.89,7.61-2.67,11.52-.73-4.02-1.41-8.02,2.67-11.52Z"/>
        <path class="cls-1" d="M149.67,169.04c-1.54,1.04-3.64,.71-5.77,0h5.77Z"/>
        <path class="cls-1" d="M121.72,173.52c.12,.08,.22,.16,.33,.23-.19,.25-.36,.52-.58,.74-.43,.44-.55,.35-.27-.2,.14-.27,.34-.52,.52-.77Z"/>
        <path class="cls-1" d="M150.42,168.44c.13-.01,.25-.02,.38-.04-.09,.09-.16,.21-.27,.25-.14,.06-.31,.07-.46,.1,.12-.11,.23-.21,.35-.32Z"/>
        <path class="cls-1" d="M163.96,181.74c-.24,.4-.43,.84-.74,1.18-.74,.83-1.57,1.1-2.37,.08-.25-.31-.82-.57-.31-1.15,.66-.77,1.31-1.42,2.39-.71,.39,.26,.79,.5,1.18,.75l-.15-.15Z"/>
        <path class="cls-1" d="M164.11,181.89c.02-.97-.3-1.98,.41-2.85q1.78,1.67-.56,2.7l.15,.15Z"/>
      </g>
    </g>
  </g>
</svg>