<?xml version="1.0" encoding="UTF-8"?>
<svg id="Layer_2" data-name="Layer 2" xmlns="http://www.w3.org/2000/svg" viewBox="0 0 91.78 125">
  <defs>
    <style>
      .cls-1 {
        fill: #db9e9f;
      }
    </style>
  </defs>
  <g id="Layer_1-2" data-name="Layer 1">
    <g>
      <path class="cls-1" d="M75.16,38.42c-.51-8.69-8.07-13.86-15.88-15.81-7.17-1.79-14.8-2.57-22.15-1.73-7.35,.84-15.1,3.22-21.26,7.98-6.69,5.17-11.05,12.43-13.33,20.53C.11,58.05-.18,67.26,.08,76.2c.26,8.95,1.16,17.97,5.5,25.77,4.09,7.35,11.29,12.28,19.61,13.4,8.35,1.12,16.16-1.76,22.57-7.07,6.41-5.31,10.92-12.81,14.18-20.37,3.89-9.02,6.37-18.5,9.24-27.87,.7-2.26,1.42-4.53,2.19-6.76l-8.81-2.43c-1.86,7.14-3.45,14.34-4.77,21.58-1.32,7.25-2.7,14.71-2.85,22.11-.14,6.96,1.08,14.12,4.68,20.17,3.26,5.47,8.54,9.92,15.12,10.25,6.85,.35,13.2-4.35,14.9-10.96,.6-2.32-.76-5.07-3.19-5.63-2.43-.55-4.99,.71-5.62,3.19-.08,.34-.19,.65-.28,.98-.14,.5,.1,.28,.09-.18,.01,.36-.61,1.1-.79,1.39-.48,.78,.14-.18,.14-.17,0,.11-.44,.48-.53,.57-.18,.18-.38,.35-.56,.53-.73,.68,.81-.48-.05,.03-.13,.07-1.2,.83-1.33,.75,0,0,.92-.33,.24-.11-.29,.09-.58,.19-.87,.27-.19,.05-.4,.1-.6,.14l-.3,.07c-.41,.07-.41,.06,0,0l.3-.05c-.2,.02-.41,.04-.62,.05-.3,.01-.62,0-.92,0,.04,0-.61-.03-.62-.06,.02,.07,1.07,.21,0-.04-.46-.1-.9-.31-1.35-.41-.62-.14,1.01,.54,.04,0-.21-.11-.43-.23-.63-.35-.31-.18-.61-.38-.91-.58-.8-.48,.55,.52-.23-.16-.85-.74-1.62-1.52-2.35-2.37-.8-.94,.46,.75-.21-.3-.14-.21-.29-.43-.44-.64-.43-.65-.82-1.33-1.19-2.02-.27-.53-.53-1.06-.77-1.6-.32-.7,.36,.99-.07-.21-.09-.25-.18-.49-.27-.75-.47-1.32-.83-2.68-1.11-4.05-.3-1.53-.37-2.07-.47-3.84-.1-1.62-.1-3.24-.04-4.87,.06-1.62,.19-3.25,.36-4.86,.08-.8,.18-1.62,.29-2.42-.03,.22-.1,.72,.03-.23,.07-.48,.13-.96,.2-1.44,.48-3.26,1.01-6.51,1.6-9.75,1.32-7.25,2.91-14.46,4.77-21.58,.6-2.32-.76-5.07-3.19-5.63-2.43-.55-4.78,.78-5.62,3.19-2.92,8.46-5.08,17.16-7.96,25.63-.73,2.15-1.51,4.29-2.38,6.39-.1,.25-.49,1.13-.17,.43-.19,.43-.39,.88-.58,1.32-.43,.93-.86,1.86-1.32,2.78-.85,1.69-1.78,3.36-2.77,4.96-.5,.8-1.01,1.58-1.54,2.35-.22,.32-.46,.65-.69,.97-.15,.22-.32,.43-.48,.63,.26-.34,.25-.31-.01,0-1.18,1.45-2.43,2.85-3.8,4.12-.6,.56-1.23,1.1-1.86,1.63-.63,.53-.1,.08,.03-.02-.15,.11-.3,.22-.46,.33-.41,.3-.82,.58-1.24,.85-.73,.47-1.48,.91-2.26,1.32-.3,.16-.61,.3-.92,.45-.14,.07-.82,.35-.22,.11,.6-.23-.12,.05-.23,.09-1.37,.48-3.24,1.3-4.72,1.21,0,0,.91-.06,.38-.06-.16,0-.34,.04-.51,.05-.4,.03-.78,.06-1.18,.08-.84,.03-1.7,.02-2.54-.05-.18-.01-1.43-.14-.74-.06,.69,.08-.58-.1-.73-.13-.78-.15-1.55-.34-2.31-.58-.38-.12-.76-.24-1.13-.38-.16-.06-.32-.13-.48-.19,.93,.32,.37,.17,.14,.07-.73-.35-1.45-.71-2.14-1.12-.35-.21-.69-.43-1.03-.66-.33-.23-1.04-.79-.36-.22-.69-.58-1.36-1.16-1.99-1.81-.3-.31-.59-.62-.86-.95-.22-.26-.68-.87-.22-.23-.59-.8-1.14-1.62-1.63-2.49-.47-.81-.84-1.64-1.26-2.47-.23-.47,.04,.1,.06,.17-.1-.24-.2-.5-.29-.74-.17-.44-.32-.89-.48-1.33-.63-1.88-1.11-3.8-1.46-5.74-.07-.4-.15-.81-.21-1.23-.04-.27-.08-.54-.13-.82,0-.06-.1-.74-.03-.21,.08,.58-.03-.3-.05-.43-.02-.2-.05-.41-.07-.62-.06-.55-.11-1.1-.16-1.66-.35-4-.45-8.04-.42-12.06,.01-2.03,.07-4.07,.2-6.1,.06-.94,.13-1.88,.21-2.82,.05-.49,.1-1,.15-1.5,.03-.28,.07-.57,.1-.85,.08-.74-.11,.67,0-.06,.61-3.93,1.45-7.8,2.89-11.52,.1-.26,.49-1.11,.16-.4,.2-.43,.39-.86,.6-1.29,.44-.9,.91-1.8,1.43-2.66,.45-.74,.91-1.46,1.42-2.16,.22-.32,.65-.84,.14-.22,.29-.36,.59-.73,.9-1.08,1.09-1.26,2.29-2.43,3.56-3.5,.13-.11,.95-.73,.47-.37-.51,.36,.48-.34,.63-.44,.69-.47,1.4-.93,2.12-1.36,.63-.36,1.27-.71,1.92-1.03,.36-.18,.7-.35,1.07-.51,.2-.09,.42-.18,.62-.28,.58-.26-.76,.28-.16,.08,1.55-.53,3.07-1.11,4.67-1.53,1.48-.38,3.18-.91,4.71-.93-.91,.02-.16,.02,.34-.03,.35-.04,.69-.07,1.04-.1,.87-.08,1.74-.13,2.61-.17,1.64-.06,3.28-.05,4.92,.04,.82,.04,1.64,.1,2.47,.17,.41,.04,.82,.08,1.23,.12,.17,.02,.36,.04,.53,.06,.14,.02,1.15,.16,.45,.05-.65-.1,.65,.1,.79,.12,.34,.05,.7,.11,1.04,.18,.86,.15,1.74,.32,2.59,.5,1.51,.33,3.01,.69,4.46,1.21,.35,.12,.75,.22,1.08,.41-.79-.46-.12-.04,.27,.15,.74,.37,1.47,.77,2.16,1.23,.24,.16,.62,.33,.81,.57-.7-.83-.04,0,.2,.21,.27,.25,.55,.52,.79,.79,.1,.11,.2,.26,.31,.36,.39,.35-.46-.75-.04-.04,.19,.31,.38,.63,.57,.94,.03,.06,.23,.37,.21,.43-.02,.05-.27-.9-.15-.36,.07,.35,.21,.74,.32,1.09,.09,.26,.35,.73,0-.24,.06,.18,.04,.53,.05,.68,.14,2.39,2,4.68,4.57,4.57,2.35-.1,4.72-2.01,4.57-4.57v.02Z"/>
      <path class="cls-1" d="M37.41,9.72c-.5,.08,0,0,.22-.03,.32-.04,.64-.08,.95-.11,.72-.08,1.44-.15,2.16-.21,1.28-.11,2.57-.19,3.85-.24,2.73-.12,5.46-.1,8.19,.07,1.28,.07,2.57,.17,3.85,.3,.64,.06,1.28,.14,1.92,.22,.32,.05,.31,.05-.02,0l.48,.08c.31,.05,.64,.09,.95,.14,2.7,.42,5.37,.99,8.02,1.67,2.32,.6,5.07-.76,5.62-3.18,.56-2.43-.71-4.99-3.19-5.63C58.8-.19,46.85-.73,34.99,.92c-2.38,.34-3.88,3.49-3.19,5.63,.84,2.61,3.08,3.54,5.62,3.18h-.02Z"/>
    </g>
  </g>
</svg>