<?xml version="1.0" encoding="UTF-8"?>
<svg id="Layer_2" data-name="Layer 2" xmlns="http://www.w3.org/2000/svg" viewBox="0 0 108 215">
  <defs>
    <style>
      .cls-1 {
        fill: #db9e9f;
        stroke: #db9e9f;
        stroke-miterlimit: 10;
      }
    </style>
  </defs>
  <g id="Layer_1-2" data-name="Layer 1">
    <path class="cls-1" d="M5.71,174.5c17.43-7.27,30.6-24.06,39.77-43.18,4.89-10.19,8.71-21.15,11.83-32.32,3.46-12.37,5.95-25.13,7.45-38.08,1.51-12.94,2.17-26.75,1.66-40.19-.22-5.81-.52-12.06-3.85-16.61-4.1-5.6-10.63-4.02-14.99,.09-3.95,3.71-7.21,8.49-10.12,13.41-2.64,4.44-4.87,9.22-6.79,14.18-4.04,10.42-6.84,21.47-9.13,32.65-2.52,12.31-4.68,24.73-6.81,37.14-2.37,13.8-4.47,27.68-5.94,41.68-1.39,13.16-2.43,26.68-1.87,39.95,.48,11.45,3.42,24.01,12.74,29,8.92,4.77,19.1,1.38,27.33-3.97,7.99-5.19,15.3-12.45,21.5-20.49,6.19-8.05,11.54-17.33,15.56-27.29,2.07-5.12,3.85-10.43,5.27-15.88,.67-2.58,1.27-5.19,1.77-7.84,.68-3.54,1.29-7.32,.41-10.89-1.41-5.75-5.84-9.63-10.51-10.72-4.67-1.1-9.56,.03-13.76,2.88-7.88,5.35-13.29,16.77-12.33,27.92,.96,11.15,7.03,21.28,15.41,25.85,8.82,4.82,19.02,3.4,27.03-3.15,3.91-3.19,7.21-7.33,9.64-12.27,1.11-2.26,.47-5.63-1.47-6.9-1.93-1.27-4.42-.61-5.62,1.8-.26,.54-.54,1.07-.82,1.58-.11,.19-1.05,1.73-.46,.83-.64,.98-1.31,1.92-2.03,2.8-.68,.84-1.42,1.59-2.15,2.38-.5,.54,.78-.67-.11,.1-.18,.16-.36,.33-.56,.49-.47,.41-.94,.79-1.42,1.15-.78,.58-1.57,1.11-2.38,1.6-.26,.14-.51,.29-.77,.44-.55,.32,.62-.28,.04-.03-.53,.24-1.05,.5-1.59,.71-.91,.37-1.83,.67-2.77,.91-.44,.11-.88,.2-1.32,.29,.93-.18,.16-.04-.08,0-.28,.03-.56,.07-.84,.09-1.01,.08-2.02,.08-3.03,0-.34-.04-1.49-.23-.59-.05-.53-.1-1.06-.21-1.58-.36-.88-.24-1.76-.57-2.61-.95-.26-.11-.5-.23-.75-.36,.13,.07,.77,.44,.1,.04-.48-.29-.97-.57-1.43-.89-.8-.54-1.57-1.13-2.32-1.78-.11-.09-.67-.58-.23-.19,.51,.45-.32-.33-.34-.34-.41-.41-.81-.86-1.2-1.31-.62-.73-1.21-1.49-1.76-2.29-.14-.21-.27-.41-.41-.61,.57,.85,.1,.16-.04-.08-.31-.53-.61-1.07-.89-1.62-.47-.94-.89-1.93-1.28-2.93-.33-.83,0-.02,.04,.14-.07-.25-.15-.49-.23-.73-.18-.61-.35-1.23-.49-1.85-.13-.56-.24-1.13-.34-1.7-.05-.26-.08-.52-.12-.78-.05-.41-.33-1.01,0-.02-.31-.95-.13-2.53-.08-3.54,.02-.4,.09-1.78,0-.62,.04-.57,.15-1.17,.26-1.73,.22-1.22,.55-2.39,.89-3.57-.32,1.06,.1-.27,.24-.59,.19-.47,.39-.94,.6-1.39,.24-.52,.49-1.02,.76-1.51,.15-.27,.31-.54,.46-.81,.43-.78-.28,.38,.04-.08,.59-.85,1.18-1.69,1.84-2.46,.31-.36,.63-.71,.95-1.06,.02-.02,.85-.79,.33-.33-.47,.42,.27-.22,.36-.31,.78-.66,1.6-1.25,2.45-1.77,.19-.11,.38-.21,.57-.32-.78,.47-.3,.16-.11,.07,.49-.23,.99-.44,1.5-.61,.4-.13,.81-.26,1.23-.36,.05,0,1.07-.25,.39-.1-.58,.13,.1,0,.25-.02,.47-.06,.95-.08,1.42-.08,.36,0,1.2,.29,1.52,.12-.1,.06-.95-.22-.17,0,.2,.06,.4,.11,.6,.16,.45,.14,.89,.29,1.33,.48,.14,.06,.74,.4,.22,.09-.6-.34,.29,.19,.34,.23,.4,.25,.76,.6,1.15,.86,.5,.32-.67-.81-.02,0,.14,.17,.28,.32,.42,.49,.07,.09,.39,.44,.39,.53,0-.2-.41-.78-.12-.18,.1,.2,.21,.39,.3,.61,.08,.17,.27,1.07,.16,.35-.11-.71-.02,.06,.04,.25,.05,.18,.08,.36,.11,.54-.03-.44-.04-.47-.02-.1,0,.76,.02,1.49-.06,2.24,.09-.93-.17,.97-.2,1.14-.22,1.28-.47,2.56-.75,3.82-.53,2.49-1.13,4.96-1.81,7.39-.32,1.15-.66,2.28-1,3.43-.18,.6-.37,1.19-.57,1.79-.09,.27-.17,.53-.26,.79-.34,1.01,.26-.71-.13,.37-1.63,4.59-3.48,9.04-5.6,13.32-1.09,2.19-2.24,4.34-3.45,6.44-.58,.98-1.17,1.96-1.76,2.93-.41,.69,.59-.91-.1,.17-.15,.23-.29,.45-.43,.68-.36,.56-.73,1.1-1.1,1.65-2.64,3.9-5.49,7.59-8.55,11-1.51,1.68-3.07,3.28-4.66,4.84-.12,.11-.61,.59,0,0-.23,.21-.46,.43-.69,.65-.42,.38-.84,.76-1.27,1.14-.85,.75-1.71,1.49-2.58,2.2-1.72,1.41-3.49,2.76-5.32,4-.8,.53-1.61,1.05-2.44,1.53-.48,.27-.95,.53-1.42,.8-.63,.34,.9-.42-.15,.06-.27,.13-.54,.26-.81,.4-1.89,.87-3.83,1.58-5.81,2.06-.27,.07-.56,.12-.84,.19-.14,.02-.85,.17-.29,.07,.66-.13-.43,.05-.46,.05-.22,.02-.45,.06-.67,.07-.99,.09-1.97,.11-2.96,.04-.41-.02-.89,0-1.29-.13,1.09,.37-.41-.11-.64-.17-.46-.12-.92-.27-1.38-.44-.31-.11-1.71-.82-.79-.3-.82-.48-1.62-.98-2.37-1.62-.1-.09-.67-.59-.25-.19,.5,.44-.35-.36-.36-.37-.38-.41-.74-.84-1.09-1.29-.18-.24-1.06-1.63-.52-.7-.26-.43-.51-.87-.74-1.33-.26-.52-.5-1.04-.73-1.58-.1-.24-.2-.48-.29-.73-.07-.18-.14-.37-.21-.55,.17,.52,.2,.61,.09,.27-.68-2.3-1.21-4.6-1.53-7.02-.04-.28-.07-.56-.11-.84,.15,1.1,.02,.14,0-.14-.06-.64-.11-1.28-.15-1.92-.08-1.27-.14-2.55-.17-3.83-.07-2.98-.04-5.96,.02-8.94,.13-6.35,.46-12.7,.96-19.03,.25-3.25,.56-6.5,.89-9.74,.16-1.57,.21-2,.42-3.79,.21-1.79,.4-3.42,.62-5.12,.81-6.39,1.74-12.75,2.75-19.1,1.98-12.43,4.23-24.82,6.51-37.18,1.9-10.28,3.93-20.55,6.79-30.51,.34-1.17,.69-2.36,1.06-3.53,.19-.61,.39-1.23,.58-1.85,.09-.27,.18-.55,.26-.81,.05-.14,.47-1.38,.27-.82-.19,.56,.1-.28,.15-.41,.12-.33,.24-.67,.36-1,.19-.54,.39-1.07,.58-1.6,.45-1.18,.91-2.36,1.4-3.53,1.92-4.63,4.13-9.08,6.7-13.22-.51,.83,.32-.49,.45-.68,.29-.45,.59-.9,.9-1.33,.73-1.06,1.48-2.08,2.25-3.07,.7-.9,1.41-1.78,2.15-2.63,.36-.41,.74-.8,1.11-1.2-.57,.58,.07-.06,.22-.19,.26-.22,.52-.43,.79-.64,.26-.2,.54-.39,.81-.56,.1-.06,.81-.43,.34-.21-.55,.26,.55-.19,.52-.19,.23-.08,.46-.13,.68-.19-.99,.24,.87,.24-.12-.01,.18,.04,.48,.2,.68,.21-.42-.24-.5-.29-.25-.13,.13,.08,.26,.15,.37,.24,.77,.45-.22-.17-.15-.19,.05,0,.35,.38,.41,.46,.13,.16,.46,.92,.22,.27-.25-.65,0,.04,.07,.2,.11,.26,.23,.52,.35,.78,.2,.42,.32,.28-.06-.22,.27,.36,.36,1.28,.46,1.76,.1,.49,.19,.98,.26,1.47,.03,.18,.12,.55,.1,.75,.07-1.11-.05-.45,0-.03,.12,1.32,.16,2.64,.22,3.98,.13,3.09,.2,6.18,.21,9.29,.03,6.1-.17,12.21-.58,18.29-.21,3.09-.48,6.17-.79,9.24,0,.12-.11,.98-.02,.19-.04,.33-.07,.68-.12,1.02-.08,.68-.15,1.36-.25,2.04-.2,1.61-.41,3.22-.65,4.84-.86,6.01-1.93,11.98-3.22,17.88-1.29,5.91-2.78,11.73-4.49,17.46-.85,2.87-1.77,5.7-2.71,8.52-.24,.7,.26-.74,0-.04-.09,.26-.18,.52-.27,.77-.21,.59-.41,1.17-.63,1.75-.42,1.17-.86,2.33-1.3,3.48-1.8,4.64-3.78,9.16-5.96,13.54-1.06,2.13-2.17,4.22-3.33,6.27-.57,.98-1.14,1.97-1.72,2.93-.27,.46-.56,.91-.83,1.36,.5-.81,.03-.05-.1,.16-.18,.28-.36,.54-.54,.83-2.57,3.93-5.37,7.63-8.42,11.02-.67,.75-1.35,1.48-2.04,2.19-.39,.4-.78,.79-1.18,1.18-.22,.22-.44,.43-.67,.64,.45-.42,.2-.19-.11,.09-1.61,1.49-3.29,2.88-5.03,4.16-1.64,1.21-3.32,2.33-5.05,3.33-.46,.27-.92,.51-1.39,.77-.15,.09-.73,.37,.04-.01-.21,.1-.42,.21-.63,.31-.95,.47-1.92,.9-2.88,1.31-2.02,.86-3.58,3.51-2.86,6.21,.65,2.48,2.87,4.43,5.05,3.52l-.02-.08Z"/>
  </g>
</svg>