<?xml version="1.0" encoding="UTF-8"?>
<svg id="Layer_2" data-name="Layer 2" xmlns="http://www.w3.org/2000/svg" viewBox="0 0 92.29 114.07">
  <defs>
    <style>
      .cls-1 {
        fill: #db9e9f;
      }
    </style>
  </defs>
  <g id="Layer_1-2" data-name="Layer 1">
    <path class="cls-1" d="M6.95,82.06c22.1-5.27,44.89-11.17,62.03-27.32,7.2-6.78,13.13-15.34,16.29-24.9,1.72-5.22,2.98-10.96,2.61-16.52-.27-4.09-2.29-7.24-5.64-9.39-2.22-1.42-4.73-2.38-7.26-3.05-9.86-2.59-20.88,.79-28.74,7.1-8.73,7-13.81,17.44-16.56,28.28-1.34,5.27-2.09,10.68-2.55,16.1-.51,6.22-.7,12.51-.06,18.74,1.22,11.83,5.3,23.03,13.41,31.7,6.84,7.33,17.05,12.29,27.05,11.09,10.01-1.19,19.04-7.25,22.91-16.53,.95-2.26,1.62-4.66,1.8-7.12,.22-2.77-1.13-5.84-4.13-6.31-2.54-.39-5.89,1.23-6.13,4.21-.08,.98-.21,1.95-.43,2.89-.1,.43-.17,.91-.36,1.3,.06-.13,.43-1.12,.05-.23-.13,.29-.24,.59-.37,.87-.36,.82-.82,1.57-1.24,2.37-.32,.63,.6-.7,.11-.19-.13,.13-.22,.32-.33,.47-.34,.46-.7,.91-1.07,1.34-.29,.35-.59,.67-.9,.99-.18,.18-.37,.37-.54,.55,.12-.12,.86-.74,.14-.15-.8,.66-1.6,1.31-2.45,1.87-.38,.26-.77,.49-1.16,.72-.17,.1-.34,.2-.5,.29-.86,.5,.08,0,.17-.08-.64,.6-2.04,.92-2.86,1.21-.43,.15-.86,.28-1.3,.4-.56,.17-1.32,.45-.32,.12-.94,.31-2.08,.35-3.05,.42-.51,.04-1.03,.06-1.54,.05-.19,0-.39-.03-.58-.02-.74,.06,.98,.12,.25,.02-1.1-.14-2.21-.28-3.3-.53-.47-.11-.95-.23-1.41-.36-.26-.08-.54-.16-.8-.24,.18,.05,1.02,.39,.1,.03-.97-.38-1.93-.79-2.88-1.27-.94-.48-1.83-1.02-2.74-1.57-.2-.13-.79-.59,.06,.04-.17-.13-.34-.25-.52-.37-.52-.38-1.02-.77-1.52-1.17-.77-.64-1.52-1.31-2.23-2.01-.41-.4-.82-.81-1.21-1.24-.15-.15-.29-.32-.44-.48-.43-.46,.53,.67-.1-.12-1.36-1.7-2.64-3.44-3.75-5.33-.29-.5-.56-1.01-.85-1.51-.12-.21-.45-.92,.03,.08-.1-.2-.19-.39-.28-.59-.57-1.21-1.09-2.45-1.55-3.72-.46-1.27-.88-2.53-1.23-3.82-.17-.59-.32-1.2-.47-1.81-.08-.36-.16-.7-.24-1.05-.23-.94,.22,1.24-.09-.42-.98-5.32-1.31-10.72-1.19-16.14,.02-.71,.04-1.45,.07-2.16,0-.03,.04-.92,.02-.36-.02,.61,.03-.51,.03-.64,.09-1.39,.2-2.78,.34-4.16,.24-2.42,.53-4.82,.93-7.22,.4-2.4,.92-4.94,1.55-7.36,.28-1.09,.6-2.16,.93-3.24-.31,1.03,.26-.75,.34-.96,.21-.6,.43-1.19,.67-1.78,.87-2.21,1.88-4.36,3.05-6.42,.31-.55,.63-1.09,.97-1.63-.52,.83,.27-.39,.44-.63,.72-1.04,1.49-2.04,2.31-3.01,.69-.81,1.43-1.59,2.19-2.34,.07-.06,.6-.53,.13-.11-.51,.45,.17-.15,.29-.25,.48-.42,.99-.82,1.49-1.22,.79-.59,1.61-1.17,2.46-1.7,.42-.26,.85-.52,1.28-.76,.15-.09,.94-.52,.33-.2-.65,.35,.4-.19,.54-.25,1.91-.91,3.88-1.6,5.92-2.13,.96-.25,.02,0-.15,.01,.27-.06,.54-.1,.81-.16,.47-.08,.96-.14,1.43-.2,1.08-.13,2.17-.19,3.27-.18,.21,0,.41,0,.61,.02,1.02,.02-.05-.03-.18-.01,.41-.08,.99,.1,1.41,.17,1.07,.16,2.14,.4,3.17,.72,.17,.04,.98,.36,.33,.09-.61-.25,.03,.02,.13,.06,.5,.21,1.01,.43,1.52,.68,.45,.21,.88,.49,1.32,.71,.68,.32-.44-.48,.08,.05,.22,.23,.68,.9,.27,.2-.07-.1-.24-.77-.1-.21,.05,.16,.25,1.11,.15,.42-.1-.69-.01,.14,0,.23,.01,.32,.05,.63,.05,.95,0,.26-.09,2.19,0,.85-.04,.59-.09,1.18-.15,1.77-.23,2.19-.63,4.35-1.18,6.48-.14,.56-.31,1.12-.48,1.69-.07,.22-.31,.98,.03-.07-.07,.21-.14,.42-.21,.63-.38,1.1-.81,2.19-1.27,3.26-.87,2.03-1.86,3.98-2.98,5.87-.14,.25-.3,.5-.46,.75-.08,.14-.57,.93-.22,.36,.33-.52-.06,.1-.12,.18-.17,.24-.32,.49-.49,.73-.66,.98-1.35,1.93-2.08,2.87-1.36,1.76-2.81,3.44-4.34,5.05-.76,.81-1.57,1.56-2.36,2.35-.42,.43,.12-.1,.17-.16-.22,.2-.43,.41-.66,.6-.5,.45-1.01,.88-1.51,1.31-1.7,1.42-3.46,2.76-5.27,4.02-2.09,1.45-4.27,2.77-6.49,4-.22,.13-.46,.25-.68,.38-.1,.05-1.05,.55-.55,.29,.45-.24-.31,.15-.32,.17-.31,.15-.62,.31-.93,.46-1.24,.62-2.49,1.2-3.75,1.77-9.7,4.32-19.96,7.17-30.22,9.71-2.54,.63-5.06,1.23-7.6,1.84-2.66,.63-4.13,4.39-3.14,6.86,1.18,2.95,3.83,3.93,6.69,3.25l-.05,.02Z"/>
  </g>
</svg>