<?xml version="1.0" encoding="UTF-8"?>
<svg id="Layer_2" data-name="Layer 2" xmlns="http://www.w3.org/2000/svg" viewBox="0 0 74.17 120.24">
  <defs>
    <style>
      .cls-1 {
        fill: #db9e9f;
      }
    </style>
  </defs>
  <g id="Layer_1-2" data-name="Layer 1">
    <path class="cls-1" d="M2.95,51.9c8.3,5,18,5.5,26.5,2.9s15.6-9,20.3-16.9c2.4-4.1,4.4-8.5,5.7-13.2s2.7-10.1,1.5-15.2c-.7-2.9-2.1-5.8-4.6-7.5C49.65,.1,46.65-.2,43.55,.1c-4.7,.5-9.3,2-13.3,4.4-8.7,5-15.1,13-19.4,22.6-3.9,8.9-5.8,19-6.5,29.1-.8,11.1-.5,22.6,3.1,33.6,3.1,9.4,9.4,18.1,17.3,23.5,7.8,5.4,17.1,8.2,25.9,6.4,8.4-1.8,16.2-6.8,20.6-14.8,1.1-2,2.1-4.1,2.7-6.4,.7-2.4-.3-5.5-2.7-6.5-2.2-1-5.1-.2-5.8,2.4-.3,.9-.6,1.8-.9,2.6-.2,.4-.3,.8-.5,1.2-.1,.2-.4,.8,.1-.1-.1,.3-.3,.5-.4,.8-.4,.7-.9,1.4-1.4,2.1-.2,.3-.5,.7-.8,1-.1,.2-.3,.4-.4,.6,0,0-.7,.9-.3,.4,.4-.4-.5,.5-.6,.6-.3,.3-.7,.7-1,1-.7,.6-1.4,1.2-2.2,1.8-.3,.2-.7,.5-1,.7-.2,.1-.3,.2-.5,.3,.8-.6,.3-.2,.1-.1-.8,.4-1.7,.9-2.5,1.3-.8,.3-1.5,.6-2.3,.9-.4,.1-.9,.3-1.4,.4-.2,.1-.9,.2,.1,0-.2,.1-.5,.1-.7,.2-1.8,.3-3.6,.5-5.5,.5h-.5c1,0,.3,0,.1,0-.5-.1-1-.1-1.5-.2-.9-.1-1.8-.3-2.8-.5-.4-.1-.8-.2-1.3-.3-.2-.1-.5-.2-.7-.2,.9,.3,.2,.1,.1,0-1-.4-1.9-.7-2.8-1.2-.8-.4-1.6-.8-2.4-1.2-.4-.3-.9-.5-1.3-.8,.8,.5-.3-.2-.6-.4-1.6-1.1-3.1-2.4-4.6-3.8-.4-.4-.8-.8-1.1-1.1-.1-.2-.6-.7,0,.1-.1-.2-.3-.3-.4-.4-.7-.8-1.4-1.6-2-2.5-.6-.8-1.2-1.7-1.7-2.5-.3-.4-.5-.8-.8-1.2-.1-.2-.3-.5-.4-.7-.4-.7,.6,1.1,0-.1-1-2-1.9-4.1-2.7-6.3-.2-.6-.4-1.1-.5-1.7,0-.1-.3-1.1-.2-.5,.1,.5-.1-.3-.1-.3-.3-1.3-.6-2.6-.8-3.9-.5-2.5-.8-5.1-1-7.6,0-.6-.1-1.2-.1-1.7v-1c0-.1,0-.9,0-.2v-3.7c0-4.7,.3-9.3,.8-13.9,.3-2.2,.6-4.4,1-6.6,.1-.6,.2-1.1,.3-1.7,0-.2,.2-.9,0-.1,.1-.2,.1-.4,.1-.6,.3-1.1,.5-2.3,.9-3.4,.6-2.2,1.3-4.3,2.1-6.3,.4-.9,.7-1.9,1.2-2.8,.2-.5,.4-.9,.6-1.4,.1-.1,.5-.9,.2-.4s.3-.5,.3-.6c1-1.9,2.1-3.7,3.4-5.4,.6-.8,1.3-1.7,1.9-2.5,.2-.2,1-1.1,.5-.5,.4-.5,.9-.9,1.3-1.3,1.5-1.4,3-2.8,4.7-4,.4-.3,.8-.5,1.2-.8,.2-.1,.5-.3,.7-.4-.2,.1-.8,.4,0,0,.9-.5,1.9-1,2.9-1.5,.9-.4,1.7-.7,2.6-1,.5-.2,1-.3,1.5-.5,.1,0,.7-.2,.2-.1-.6,.1,.5-.1,.6-.1,1-.2,2-.3,3-.4,.5-.1,.9-.1,1.4-.1,.2,0,.8,.1,0,0,.3,0,.5,.1,.8,.1,1.1,.2,0,0,0,0,0-.1,1,.8,0-.1,.1,0,.6,.4,.6,.5,.1-.1-.7-.5-.3-.2,.2,.1,.4,.9,.2,.2-.3-.7,0,0,0,.1s.3,.6,.3,.7c0-.6-.2-.6,0,.1,.1,.5,.1,.9,.2,1.4,.1,.9,0,.1,0,0v.8c0,1-.2,2-.4,3,0,.3-.1,.6-.2,.8,0,.1-.2,1-.1,.4,.1-.5,0,.2-.1,.2-.1,.3-.1,.5-.2,.8-.3,1.1-.6,2.1-.9,3.2-.6,2-1.3,3.9-2.1,5.8-.2,.5-.4,1-.7,1.5,0,.1-.3,.7-.1,.2s-.1,.3-.2,.4c-.5,.9-1,1.9-1.6,2.8-1,1.7-2.2,3.3-3.5,4.8-.2,.2-1,1.1-.4,.4-.4,.4-.7,.8-1.1,1.1-.7,.7-1.5,1.4-2.3,2.1-.7,.6-1.4,1.1-2.1,1.6-.4,.3-.8,.5-1.2,.8,.8-.5-.2,.1-.6,.3-1.6,.9-3.3,1.6-5.1,2.1-.5,.1-.9,.3-1.4,.4,.9-.2-.1,0-.4,.1-1,.2-1.9,.3-2.9,.4-.9,.1-1.8,.1-2.8,.1-.2,0-1.4,0-.9,0s-.1,0-.1,0c-.3,0-.6-.1-.9-.1-.9-.1-1.8-.3-2.8-.5-.4-.1-.8-.2-1.3-.3-.2-.1-1.8-.6-.8-.2-1.8-.7-3.5-1.5-5.2-2.5-2.2-1.3-5.1,.1-5.8,2.4-.8,2,.4,4.5,2.7,5.9h0Z"/>
  </g>
</svg>