<?xml version="1.0" encoding="UTF-8"?>
<svg id="Layer_2" data-name="Layer 2" xmlns="http://www.w3.org/2000/svg" viewBox="0 0 96.1 178.67">
  <defs>
    <style>
      .cls-1 {
        fill: #db9e9f;
      }
    </style>
  </defs>
  <g id="Layer_1-2" data-name="Layer 1">
    <g>
      <path class="cls-1" d="M44.49,34.42c-6.76-1.07-13.45,2.83-16.57,8.76-1.65,3.13-1.9,6.84-1.34,10.29,.3,1.89,.87,3.73,1.46,5.55,.65,2,1.48,3.88,3.1,5.3,1.51,1.32,3.34,1.79,5.24,2.24,1.7,.41,3.42,.7,5.17,.73,3.81,.05,7.4-.9,10.44-3.27,2.51-1.95,4.39-4.6,6.02-7.3,1.77-2.96,3.45-5.92,4.24-9.3,.97-4.12-.12-8.31-3.36-11.13-2.82-2.44-6.76-3.09-10.35-3.43-2.21-.2-4.54,1.43-4.7,3.75-.15,2.32,1.38,4.48,3.75,4.7,1.16,.11,2.29,.28,3.44,.46,.21,.02,.8,.21-.09-.04,.28,.08,.55,.16,.82,.24s.53,.18,.79,.3,1.04,.63,.21,.06c.18,.12,.36,.23,.54,.36,.24,.18,.76,.86,.18,.12,.12,.17,.27,.37,.42,.51-.46-.48-.15-.33-.03-.04,.09,.23,.31,1.19,.14,.22,.04,.22,.07,.45,.12,.66,.19,1.01,.09-.58,.02,.04-.04,.35-.05,.69-.1,1.04-.04,.29-.1,.58-.16,.87,.19-.88,.06-.24-.01-.06-.23,.57-.41,1.16-.65,1.73-.24,.57-.52,1.13-.8,1.68-.11,.22-.23,.43-.35,.65,.43-.82-.07,.12-.17,.29-1.19,2.05-2.45,4.02-3.97,5.83-.51,.6-.08,.09,.04-.02-.2,.2-.41,.4-.63,.59-.39,.35-.8,.63-1.21,.95-.84,.66,.74-.3-.24,.14-.21,.09-.41,.21-.62,.3-.23,.1-.46,.19-.7,.27-.48,.17-.5,.17-.08,.03-.2,.05-.38,.09-.57,.12-.58,.11-1.17,.17-1.76,.2,.96-.04-.35-.04-.45-.04-.26-.01-.54-.04-.8-.06-.67-.07-1.33-.17-1.99-.29-.26-.05-.53-.11-.79-.16-1.01-.2,.44,.17-.44-.11-.29-.09-.65-.26-.94-.31l-.18-.08c.38,.24,.36,.22-.04-.06l.29,.25-.22-.28,.2,.32c-.11-.21-.21-.43-.3-.65-.2-.46-.35-.93-.51-1.41-.14-.4-.26-.8-.39-1.2,.2,.68-.12-.47-.15-.57-.31-1.22-.51-2.45-.62-3.71-.11-1.26-.13,.72,.01-.52,.03-.27,.03-.55,.06-.83,.03-.28,.09-.55,.12-.82,.1-.86-.26,.73,.1-.32,.09-.26,.19-.51,.29-.77,.08-.18,.61-1.09,.05-.2,.31-.52,.64-1.01,1.03-1.48,.18-.21,.35-.42,.54-.61-.69,.76,.07-.02,.2-.13,.17-.14,.34-.29,.51-.42,.09-.07,1.12-.8,.62-.46-.54,.36,.36-.19,.39-.21,.29-.15,.59-.29,.89-.41,.2-.08,.41-.15,.62-.24,.78-.32-.71,.14,.36-.09,.1-.02,1.76-.34,1.79-.24,.02,.09-.87-.06-.15,.02,.44,.05,.88,.07,1.31,.15,2.19,.35,4.55-1.54,4.7-3.75,.16-2.39-1.4-4.33-3.75-4.7l-.02,.02Z"/>
      <path class="cls-1" d="M6,149.59c9.23-4.51,16.78-11.9,22.22-20.55,6.11-9.71,9.63-20.58,12-31.76,1.39-6.58,2.36-13.25,3.3-19.9l-8.45-.94c-1.8,21.7-3.16,44.41,2.93,65.6,1.55,5.39,3.47,10.65,6.05,15.63,2.58,4.98,5.55,9.89,9.55,13.82,4.56,4.47,10.46,7.91,17.08,7.07,6.14-.79,10.78-5.39,14.22-10.2,8.2-11.45,12-25.56,11.06-39.57-.15-2.22-2.76-3.96-4.87-3.53-2.42,.5-3.69,2.49-3.53,4.87,.05,.67,.08,1.35,.11,2.03-.04-.94,0,.4,0,.48,0,.27,0,.54,0,.81-.01,1.49-.09,2.98-.23,4.45-.25,2.69-.69,5.37-1.33,8,.22-.92-.1,.39-.13,.46-.07,.26-.14,.53-.22,.78-.19,.66-.38,1.3-.6,1.94-.46,1.41-.98,2.81-1.55,4.18-.49,1.19-1.02,2.36-1.6,3.5-.3,.6-.63,1.19-.93,1.8-.35,.68,.5-.84-.15,.28-.2,.35-.41,.7-.62,1.04-1.41,2.32-2.99,4.6-4.81,6.63-.16,.18-.34,.37-.51,.54,.57-.59-.01,0-.17,.13-.45,.42-.91,.82-1.4,1.19-.24,.18-.49,.35-.74,.54-.64,.46-.14,.1,0,.01-.63,.37-1.29,.65-1.96,.92-1.03,.42,.5-.05-.17,.06-.3,.05-.6,.13-.9,.18-.31,.05-.61,.06-.9,.11-.66,.12,.99,.07-.1,0-.6-.04-1.17-.11-1.76-.19-.79-.11-.1,0,.07,.05-.46-.12-.91-.27-1.36-.44-.51-.19-1.01-.41-1.5-.65-.2-.1-.9-.51-.17-.08-.27-.16-.53-.33-.79-.49-1.13-.73-2.15-1.58-3.16-2.46-.92-.82,.31,.35-.2-.18-.22-.23-.45-.46-.67-.69-.44-.47-.87-.95-1.28-1.46-.86-1.02-1.64-2.09-2.38-3.19-.34-.51-.68-1.03-1.02-1.55-.16-.26-.33-.52-.49-.79,.42,.66,.07,.11,0-.02-.69-1.16-1.35-2.34-1.97-3.53-2.31-4.42-4.13-9.07-5.59-13.85,.05,.17,.24,.79,0,0-.1-.35-.2-.71-.3-1.06-.16-.59-.32-1.18-.47-1.77-.3-1.18-.58-2.38-.84-3.57-.54-2.53-.99-5.08-1.35-7.64-.72-5.07-1.12-10.18-1.29-15.3-.01-.25-.02-.51-.02-.75-.01-.25-.01-.5-.02-.75,0,.45,0,.52,0,.19,0-.7-.02-1.39-.03-2.08-.01-1.51-.01-3.04,0-4.55,.04-2.91,.13-5.82,.26-8.73,.26-5.78,.69-11.54,1.17-17.3,.18-2.21-1.41-4.54-3.75-4.7-2.34-.16-4.37,1.39-4.7,3.75-1.6,11.42-3.22,22.35-6.82,32.81-.86,2.51-1.83,4.99-2.94,7.41-.48,1.06-.99,2.11-1.52,3.15-.23,.44-.46,.87-.69,1.3,0-.02-.58,1.04-.26,.48,.25-.43-.4,.69-.47,.79-1.18,2.01-2.48,3.95-3.88,5.82-.66,.88-1.35,1.74-2.06,2.58-.35,.42-.71,.83-1.08,1.24-.21,.22-.41,.45-.62,.67-.13,.15-.88,.93-.25,.28-1.77,1.83-3.69,3.52-5.73,5.04-1.07,.79-2.17,1.55-3.3,2.25,.69-.4,.14-.09,0,0-.31,.18-.63,.37-.95,.54-.64,.36-1.29,.68-1.95,1.01-2,.97-3.21,3.5-2.16,5.62,1.05,2.11,3.47,3.2,5.61,2.16v.04Z"/>
      <path class="cls-1" d="M51,47.32c.18-4.14,.36-8.3,.78-12.42,.2-1.98,.46-3.96,.8-5.93,.16-.9,.34-1.81,.53-2.71,.04-.16,.43-1.84,.23-1.07,.1-.38,.2-.76,.31-1.13,.92-3.26,2.16-6.45,3.79-9.43-.42,.76,.25-.41,.34-.55,.23-.39,.48-.77,.74-1.14,.43-.64,.88-1.28,1.35-1.89,.55-.72,1.14-1.4,1.74-2.08,.85-.93-.58,.53,.32-.33,.37-.36,.76-.71,1.15-1.06,1.66-1.48,2.23-4.18,.67-5.97-1.45-1.66-4.2-2.25-5.97-.67-5.83,5.2-9.76,12.14-11.92,19.6-2.44,8.43-2.94,17.13-3.31,25.84-.1,2.21,1.35,4.53,3.75,4.7,2.17,.15,4.59-1.37,4.7-3.75h.01Z"/>
    </g>
  </g>
</svg>