<?xml version="1.0" encoding="UTF-8"?>
<svg id="Layer_2" data-name="Layer 2" xmlns="http://www.w3.org/2000/svg" viewBox="0 0 108.86 172.58">
  <defs>
    <style>
      .cls-1 {
        fill: #db9e9f;
      }
    </style>
  </defs>
  <g id="Layer_1-2" data-name="Layer 1">
    <g>
      <path class="cls-1" d="M12.8,40.45c-2.71,15.27-1.24,30.83-1.5,46.24-.26,15.66-1.9,31.31-4.88,46.69-.42,2.14-.85,4.26-1.32,6.39-.12,.53-.24,1.06-.35,1.59-.11,.53-.03,.07,0-.02-.07,.3-.14,.61-.21,.91-.25,1.05-.5,2.11-.76,3.17-1.07,4.37-2.27,8.71-3.57,13.01-.67,2.21,.22,4.93,2.6,5.7,2.16,.7,4.99-.22,5.7-2.6,4.62-15.38,7.93-31.18,9.81-47.13,.92-7.78,1.5-15.6,1.72-23.43,.22-7.84,0-15.67-.07-23.51-.08-8.77,.12-17.57,1.65-26.21,.4-2.29-1.77-4.71-4.03-4.8-2.57-.12-4.37,1.57-4.8,4.03v-.02Z"/>
      <path class="cls-1" d="M19.21,104.94c12.07-10.11,24.17-20.26,35.26-31.46,5.68-5.75,11.13-11.74,16.12-18.1,4.99-6.36,10.33-13.41,10.06-21.65-.25-7.56-4.91-15.35-13.1-16.02-3.74-.3-7.55,.98-10.47,3.32-3.1,2.47-4.93,6.07-5.5,9.95-1.18,8.13,3.88,15.68,11.02,19.12,6.24,3.01,13.71,1.93,19.47-1.62,5.76-3.54,10.1-8.54,13.56-14.17,4.37-7.12,7.8-14.82,9.97-22.88,.58-2.19,1.1-4.4,1.54-6.62,.44-2.22-1.82-4.7-4.03-4.8-2.61-.11-4.31,1.58-4.8,4.03-.09,.46-.18,.92-.28,1.38-.31,1.49,.21-.82-.15,.67-.22,.9-.45,1.82-.7,2.72-.49,1.8-1.05,3.59-1.68,5.36-1.19,3.38-2.59,6.69-4.2,9.9-.21,.42-.43,.83-.65,1.25,.39-.75-.33,.61-.33,.6-.38,.68-.77,1.36-1.16,2.04-.8,1.36-1.64,2.7-2.54,4-.8,1.14-1.65,2.25-2.55,3.32-.38,.45-.77,.88-1.16,1.31,.74-.83-.05,.04-.18,.17-.32,.33-.67,.66-1,.97-.92,.85-1.89,1.67-2.91,2.4-.27,.2-.56,.38-.84,.58-.93,.65,.81-.44-.18,.11-.57,.33-1.16,.65-1.76,.93-.6,.28-1.21,.5-1.81,.74-1.01,.4,.9-.2-.15,.05-.21,.05-.42,.11-.62,.15-.63,.15-1.27,.26-1.92,.33-.25,.02-1.25,.26-.15,.04-.35,.07-.8-.01-1.16-.03-.66-.03-1.31-.13-1.95-.22,1.01,.16-.23-.06-.38-.11-.38-.11-.76-.24-1.12-.39-.31-.12-.61-.25-.91-.39-.22-.11-.96-.56-.19-.08-.8-.49-1.53-1.03-2.27-1.62-.97-.77,.5,.63-.32-.31-.18-.2-.36-.39-.52-.59-.25-.3-.48-.63-.73-.95-.73-.89,.33,.74-.19-.28-.34-.66-.65-1.33-.93-2.02-.3-.77-.05-.15,0,.02-.13-.48-.24-.96-.32-1.44-.06-.37-.1-.73-.14-1.1-.14-1.15-.11,.83,0-.32,.06-.61,.1-1.21,.19-1.82,.16-1.15-.35,.82,.07-.26,.13-.34,.23-.69,.37-1.03,.1-.23,.7-1.18,.09-.24,.22-.34,.43-.67,.67-.99,.18-.23,.36-.45,.55-.66-.75,.82,.05,.02,.2-.11,.26-.23,.54-.42,.81-.63,.86-.67-.78,.33,.21-.12,.53-.23,1.03-.48,1.57-.68-1.01,.37,.02,.02,.23-.02,.44-.09,.88-.14,1.34-.18-1.11,.09-.02,.05,.2,.06,.29,.02,.56,.08,.83,.11,.63,.07-.98-.4-.01,.03,.21,.09,.82,.19,.95,.38l-.44-.25c.2,.12,.39,.23,.57,.35,.28,.19,.53,.4,.8,.6,.84,.63-.38-.49,.02,.02,.24,.31,.53,.59,.76,.9,.12,.17,.66,1.12,.15,.17,.17,.3,.33,.61,.48,.91,.15,.31,.27,.64,.41,.96,.31,.72,.05,.07,0-.08,.2,.67,.35,1.36,.45,2.06,.05,.34,.08,.7,.11,1.05-.1-1.12-.02,.37-.04,.61-.03,.65-.14,1.29-.24,1.93-.22,1.36,.28-.7-.15,.6-.14,.43-.26,.86-.42,1.28-.25,.7-.54,1.4-.85,2.09-.19,.41-.39,.82-.6,1.23,.37-.67-.49,.8-.57,.93-1.82,2.99-3.99,5.76-6.15,8.49-2.16,2.73-4.59,5.61-7.01,8.31-1.1,1.23-2.23,2.46-3.37,3.67-1.01,1.08,.57-.59-.45,.48-.21,.21-.41,.43-.62,.66-.74,.76-1.47,1.52-2.21,2.27-11.17,11.34-23.39,21.58-35.58,31.79-1.77,1.49-2.23,4.42-.64,6.23,1.6,1.8,4.34,2.21,6.23,.63h.02Z"/>
      <path class="cls-1" d="M17.45,107.14c1.02-.02,2.05,.02,3.08,.12,.51,.05,1.01,.11,1.51,.2,.25,.04,.5,.09,.75,.13,1.24,.21-.88-.26,.32,.07,2.03,.53,3.98,1.25,5.86,2.18,.12,.06,.84,.45,.33,.17-.52-.28,.2,.11,.32,.18,.45,.26,.89,.52,1.32,.8,.93,.59,1.83,1.22,2.71,1.89,.87,.67,1.64,1.3,2.41,2,.2,.18,.39,.36,.58,.53-.59-.54-.08-.08,.02,.03,.47,.47,.93,.94,1.38,1.42,1.49,1.6,2.88,3.29,4.15,5.07,.3,.43,.61,.87,.9,1.3,.15,.22,.29,.43,.44,.66,.07,.1,.51,.8,.23,.34-.28-.45,.16,.26,.21,.36,.14,.23,.27,.44,.4,.67,.31,.54,.61,1.08,.9,1.63,2.26,4.2,4.08,8.61,5.76,13.08,1.67,4.47,3.18,9.02,4.84,13.51,1.66,4.48,3.3,9.34,6.03,13.34,3.12,4.55,8.49,6.42,13.84,5.55,4.91-.8,9.3-3.48,13.13-6.53,8.75-6.95,15.56-16.26,19.72-26.61,.86-2.15-.36-4.98-2.6-5.7-2.24-.72-4.77,.3-5.7,2.6-.43,1.06-.87,2.1-1.35,3.14-.25,.52-.49,1.03-.74,1.54-.13,.26-.26,.5-.39,.76-.38,.75,.11-.17-.14,.27-1.15,1.97-2.31,3.92-3.64,5.78-1.32,1.85-2.83,3.75-4.4,5.48-.14,.16-.29,.32-.43,.47-.49,.55,.42-.42-.09,.1-.4,.4-.8,.81-1.2,1.21-.86,.84-1.76,1.67-2.66,2.46-1.66,1.45-3.4,2.85-5.26,4.03,.66-.41,.07-.04-.06,.02-.23,.13-.47,.27-.7,.39-.47,.26-.95,.49-1.43,.72-.48,.23-.97,.42-1.47,.61-.18,.06-.37,.12-.56,.2-.46,.17,.57-.13-.22,.05-.49,.11-.99,.23-1.5,.3-.24,.04-.49,.06-.75,.09-.83,.1-.12,0,.04,.01-.49-.02-.96-.06-1.44-.1-.27-.03-.74-.25,.11,.04-.28-.1-.58-.17-.85-.28-.14-.05-.86-.34-.3-.1,.51,.22-.03-.01-.12-.07-.18-.12-1.28-1.05-.69-.46-.38-.38-.71-.82-1.04-1.25-.5-.65-.18-.23-.08-.07-.18-.29-.34-.6-.5-.9-2.14-4.06-3.68-8.49-5.22-12.8-1.54-4.3-3.01-8.63-4.64-12.89-3.27-8.53-7.35-16.92-13.65-23.65-6.91-7.38-16.29-13.09-26.67-12.95-2.31,.03-4.68,1.47-4.8,4.03-.1,2.2,1.54,4.84,4.03,4.8l-.03,.03Z"/>
    </g>
  </g>
</svg>