<?xml version="1.0" encoding="UTF-8"?>
<svg id="Layer_2" data-name="Layer 2" xmlns="http://www.w3.org/2000/svg" viewBox="0 0 130.29 224.57">
  <defs>
    <style>
      .cls-1 {
        fill: #db9e9f;
        stroke: #db9e9f;
        stroke-width: .25px;
      }
    </style>
  </defs>
  <g id="Layer_1-2" data-name="Layer 1">
    <path class="cls-1" d="M24.75,194.36c3.6,8.3,9.9,13.9,17,14.8,6.8,.9,13.5-1.8,18.1-8,5.4-7.2,7.6-17.7,8.2-27.9,.7-11.3-.3-23-1.7-34.4-3.1-25.4-9.2-50.5-16.7-74.7-3.7-12-7.7-23.9-12.1-35.6-3.8-10.2-8.7-21.6-17.2-26.4C16.45-.04,12.15-.54,8.25,1.06,4.15,2.76,1.55,7.46,.55,12.86c-.9,5.4-.2,11.2,.6,16.8,.9,5.5,1.9,11.4,3,17,4.5,22.9,10.9,45.3,19,66.8,8,21.4,17.7,41.9,28.9,60.9,5.4,9.3,11.3,18.2,17.4,26.7,6.2,8.5,13,17.4,21.5,21.3,7.3,3.4,15.1,2.6,21.5-2.2s11.4-12.6,14.4-21.6c3.4-10.1,3.8-21.6,2.9-32.8-1.1-12.4-4.2-24.7-7.9-36.4-1.8-5.6-3.8-11.2-5.9-16.7-1-2.5-3.4-4.1-5.4-3-2,1.2-2.9,4.1-1.9,6.8,2,5.3,3.9,10.7,5.7,16.2,.9,2.7,1.7,5.5,2.5,8.3,.4,1.4,.8,2.8,1.1,4.2,.1,.3,.2,.7,.3,1,0,.1,.2,1,0,.2,.2,.7,.3,1.4,.5,2.1,1.3,5.6,2.3,11.3,2.8,17.1,.1,1.3,.2,2.6,.3,3.9,0,.7,.1,1.4,.1,2.1,0-.2,0-.9,0,.2v1.3c0,2.8,0,5.5-.2,8.3-.1,1.1-.2,2.2-.3,3.3-.1,.6-.2,1.1-.2,1.7-.1,1,0,.1,0-.1-.1,.3-.1,.7-.2,1-.4,2.1-1,4.2-1.6,6.3-.3,.9-.6,1.9-1,2.8-.1,.3-.7,1.6-.2,.7-.2,.5-.5,1.1-.7,1.6-.8,1.8-1.8,3.6-2.8,5.2-.3,.4-.5,.8-.8,1.2-.1,.2-.3,.4-.4,.6-.4,.5,.5-.6,.1-.1-.6,.8-1.2,1.5-1.8,2.2-.6,.6-1.1,1.2-1.7,1.7-.3,.3-.6,.5-.8,.7s-1.4,1.3-.6,.5c-1.2,1.1-2.7,1.8-4.1,2.4-.3,.1-.6,.3-.9,.4-1,.4,.7-.2-.3,.1-.8,.2-1.6,.4-2.4,.5-.7,.1-1.4,.1-2.2,.1-.6,0,.8,.1,.2,0h-.6c-.4,0-.9-.1-1.3-.2-.7-.1-1.5-.3-2.2-.6-.1,0-.8-.3-.2-.1,.5,.2-.1-.1-.3-.1-.5-.2-1-.5-1.5-.7-.9-.4-1.7-.9-2.5-1.5-.4-.3-.9-.6-1.3-.9-.6-.4,.5,.4,0,0-.3-.2-.5-.4-.8-.6-1.7-1.4-3.3-3.1-4.9-4.8-.8-.9-1.6-1.8-2.3-2.7-.3-.4-.7-.8-1-1.2-.1-.1-.7-.8-.3-.4,.3,.4-.4-.5-.5-.6-1.5-1.9-3-3.9-4.4-5.9-2.9-4-5.7-8.2-8.5-12.4-5.6-8.6-10.8-17.5-15.7-26.7-1.2-2.3-2.4-4.6-3.6-6.9-.6-1.1-1.1-2.2-1.6-3.3-.3-.6-.6-1.2-.9-1.8-.1-.3-.3-.6-.4-.9,.3,.7,0-.1-.2-.4-2.3-4.7-4.4-9.6-6.5-14.4-8.4-19.6-15.3-40.2-20.7-61.3-.2-.7-.3-1.3-.5-2,0-.2-.2-1,0-.1-.1-.3-.1-.5-.2-.7-.3-1.4-.7-2.8-1-4.2-.6-2.6-1.2-5.3-1.8-7.9-1.1-5.3-2.1-10.6-3-16-.4-2.6-.9-5.3-1.3-7.9-.2-1.2-.3-2.5-.5-3.8-.1-.6-.1-1.3-.2-1.9v-.7c-.1-.6,0,.8,0-.2,0-1.2,0-2.4,.1-3.6,0-.3,.1-.6,.1-.9,0,.2-.2,1,0,.1,.1-.5,.2-1.1,.4-1.6,.1-.3,.2-.5,.3-.8-.3,.9-.1,.3,0,.1s.5-1.1,.7-1.2c0,0-.7,.8-.1,.2,.1-.2,.3-.3,.4-.5,.2-.2,.3-.3,.4-.4,.5-.5-.1,0-.2,.1,.1-.2,.8-.5,1-.6s.3-.2,.5-.2c.8-.3-.2,.1-.2,.1,.1-.3,2-.4,2.3-.3-.5-.3-.6,0-.2,0,.2,0,.4,.1,.6,.1,.4,.1,.8,.1,1.2,.3,.3,.1,1.4,.6,.5,.1,.5,.2,.9,.4,1.3,.6,.3,.2,.7,.4,1,.6,.3,.2,1.2,1,.5,.3,.8,.7,1.6,1.4,2.3,2.3,.2,.2,1,1.2,.4,.5,.4,.4,.7,.9,1,1.4,.7,1,1.4,2.1,2,3.2,.6,1,1.1,2,1.6,3-.4-.8,0-.1,0,.1,.1,.3,.3,.6,.4,.9,.3,.6,.6,1.3,.9,2,1,2.3,1.9,4.7,2.8,7.1,2,5.5,4,11,5.9,16.5,3.9,11.4,7.5,22.9,10.7,34.5,1.6,5.9,3,11.3,4.2,16.6,1.4,5.8,2.6,11.7,3.7,17.6,2.2,11.6,3.8,23.3,4.7,35.1,.1,1.2,.2,2.5,.2,3.7,0,.6,.1,1.2,.1,1.9,0,.3,.1,2,0,.9,.1,2.5,.1,5,0,7.4-.1,2.5-.2,4.8-.4,7.2-.1,1.2-.3,2.3-.4,3.5,0,.3-.3,1.9-.1,.8-.1,.6-.2,1.3-.4,1.9-.5,2.2-1,4.3-1.8,6.3-.2,.4-.3,.9-.5,1.3-.3,.9,0,.1,0-.1-.1,.2-.2,.5-.3,.7-.5,1-1,2-1.5,2.9-.2,.4-.4,.7-.6,1-.1,.2-.2,.3-.3,.5-.5,.7,.2-.2,.2-.2,.1,.1-1.5,1.7-1.6,1.8-.2,.2-1.5,1-1.5,1.4,.1-.3,.7-.5,.2-.2-.1,.1-.3,.2-.4,.3-.3,.2-.7,.4-1,.6-.6,.3-1.2,.6-1.8,.8-.2,.1-.3,.1-.5,.2-.7,.3,.2-.1,.3-.1-.2-.1-.9,.2-1.1,.3-.6,.1-1.3,.2-1.9,.3-.3,0-.7,0-1,.1h-.5c.5-.3,.8,0,.2,0-1.4-.1-2.7-.5-4-.9-.5-.1,.8,.4,.3,.1-.2-.1-.3-.1-.5-.2-.3-.1-.6-.3-1-.5-.3-.2-.6-.3-.8-.5-.2-.1-1-.8-1.2-.8,0,0,.7,.6,.4,.3-.1-.1-.3-.2-.4-.4-.3-.3-.6-.5-.9-.8-.3-.2-.5-.5-.7-.8-.1-.1-.3-.3-.4-.5-.6-.7,.2,.2,.2,.2-.1,.1-1.3-2-1.4-2.2-.2-.3-.4-.7-.6-1-.1-.2-.4-.9-.1-.2,.3,.8-.1-.3-.2-.4-1.1-2.5-3.4-4.2-5.4-3-1.7,1.4-2.9,4.5-1.7,7.1h0Z"/>
  </g>
</svg>