<?xml version="1.0" encoding="UTF-8"?>
<svg id="Layer_2" data-name="Layer 2" xmlns="http://www.w3.org/2000/svg" viewBox="0 0 75.71 208.46">
  <defs>
    <style>
      .cls-1 {
        fill: #db9e9f;
      }
    </style>
  </defs>
  <g id="Layer_1-2" data-name="Layer 1">
    <path class="cls-1" d="M4.34,144.11c31.54,1.62,50.21-29.63,59.92-55.24,5.74-15.13,9.23-31.05,10.71-47.15,.74-8.04,.93-16.13,.55-24.2-.27-5.66,.36-14.28-6.22-16.67-12.77-4.63-22.58,10.67-27.2,20.01-6.99,14.13-12.84,28.87-17.47,43.94-9.48,30.85-13.89,63.51-11.83,95.76,.97,15.25,2.25,34.12,15.78,43.94,12.23,8.88,28.76,2.11,30.5-13.05,.66-5.74-8.35-5.7-9,0s-6.45,9.32-11.8,7.96-9.54-6.74-11.72-11.73c-5-11.44-4.96-25.59-5.2-37.88-.5-25.59,3.04-51.13,9.94-75.77,3.5-12.48,7.81-24.74,12.99-36.62,2.27-5.2,4.6-10.43,7.32-15.42,2.42-4.45,5.61-10.01,10.49-12.09,.42-.18,3.26-1.24,3.67-.95s.35,2.63,.41,3.18c.3,2.97,.39,5.98,.46,8.96,.18,6.88-.05,13.76-.68,20.61-1.18,12.94-3.91,25.75-8.01,38.07-7.88,23.7-23.98,56.84-53.62,55.32-5.79-.3-5.77,8.7,0,9h0Z"/>
  </g>
</svg>