<?xml version="1.0" encoding="UTF-8"?>
<svg id="Layer_2" data-name="Layer 2" xmlns="http://www.w3.org/2000/svg" viewBox="0 0 77.47 210.28">
  <defs>
    <style>
      .cls-1 {
        fill: #db9e9f;
      }
    </style>
  </defs>
  <g id="Layer_1-2" data-name="Layer 1">
    <path class="cls-1" d="M5.2,145.9c31.98,1.64,50.93-29.91,60.79-55.9,5.77-15.21,9.26-31.21,10.74-47.39,.74-8.04,.93-16.13,.55-24.2-.29-6.1,.23-14.93-6.77-17.49-13.27-4.85-23.47,10.56-28.32,20.38-7.02,14.2-12.91,29.01-17.56,44.15-9.5,30.92-13.93,63.68-11.86,96,1,15.66,2.4,34.64,16.22,44.72,12.84,9.36,30.05,1.91,31.86-13.82,.79-6.89-10.01-6.84-10.8,0-.58,5.04-5.93,8.29-10.66,7.09-5.31-1.34-9.12-6.55-11.18-11.31-4.89-11.31-4.84-25.29-5.08-37.42-.5-25.52,3.03-50.96,9.91-75.53,3.47-12.4,7.76-24.6,12.9-36.41,2.27-5.2,4.6-10.43,7.32-15.42,2.33-4.27,5.43-9.82,10.17-11.77,.01,0,3.55-.79,2.34-1.48,.37,.21,.33,2.5,.38,2.94,.3,2.97,.39,5.98,.46,8.96,.18,6.88-.05,13.76-.68,20.61-1.18,12.85-3.9,25.59-7.98,37.83-7.75,23.31-23.56,56.16-52.76,54.66-6.95-.36-6.93,10.44,0,10.8h0Z"/>
  </g>
</svg>