<?xml version="1.0" encoding="UTF-8"?>
<svg id="Layer_2" data-name="Layer 2" xmlns="http://www.w3.org/2000/svg" viewBox="0 0 76.16 135.59">
  <defs>
    <style>
      .cls-1 {
        fill: #db9e9f;
      }
    </style>
  </defs>
  <g id="Layer_1-2" data-name="Layer 1">
    <path class="cls-1" d="M9.84,57.03C25.54,42.53,37.04,24.03,41.84,5.43l-11.1,1.9c5.4,13,10.7,26,16.1,39,2.7,6.5,5.4,13,8,19.5s5.3,12.4,7.6,18.7c.5,1.5,1,3,1.4,4.5,.2,.7,.4,1.4,.5,2.2,.1,.4,.2,.8,.2,1.2,0,.2,.2,1.6,.1,.7,.1,1.3,.1,2.7,.1,4.1,0,.7-.1,1.4-.2,2.2,0,.2-.2,1,0,0-.1,.4-.2,.9-.3,1.3-.3,1.4-.7,2.8-1.2,4.2-.2,.6-.5,1.3-.8,1.9,.5-1.1,0-.1-.1,.2-.2,.5-.5,1-.8,1.5-.7,1.2-1.4,2.5-2.3,3.7-.2,.3-.4,.5-.6,.8,.7-1,.1-.1-.1,.1-.6,.7-1.2,1.4-1.8,2.1-1,1.1-2.1,2.1-3.2,3.1,1.2-1-.8,.6-1.1,.8-.7,.5-1.5,1.1-2.2,1.5-.6,.4-1.3,.8-1.9,1.1,1.4-.8-.9,.4-1.2,.5-1.5,.7-3,1.2-4.5,1.7-.3,.1-1.1,.2,.1,0-.4,.1-.8,.2-1.2,.3-.7,.2-1.4,.3-2.1,.4-.8,.1-1.5,.2-2.3,.3-.3,0-.6,.1-.9,.1-1.3,.1,.8,0-.4,0-1.4,0-2.8-.1-4.2-.2-.4-.1-2.1-.4-1-.1-.8-.2-1.5-.4-2.2-.6-.7-.2-1.4-.5-2.1-.8-.9-.4-.1,0,.1,.1-.4-.2-.8-.5-1.2-.7-.6-.4-1.1-.8-1.7-1.2-.2-.2-.4-.3-.6-.5-.2-.2-.4-.3-.5-.5l.4,.4c-1-.6-1.8-2.3-2.3-3.3-.1-.3-.3-.5-.4-.8-.2-.3-.1-.2,.2,.3-.1-.2-.2-.4-.3-.7-.2-.6-.4-1.2-.6-1.8-.2-.7-.3-1.3-.5-2-.1-.3-.1-.6-.1-.9,.1,.8,0,.3,0-.2-.1-1.4,0-2.8,.2-4.3,0,.2-.2,1.1,0,.1,.1-.4,.2-.8,.3-1.2,.2-.8,.5-1.6,.8-2.4,.1-.3,.2-.5,.3-.8-.4,1.2,0,.1,.1-.2,.4-.8,.8-1.5,1.3-2.3,1.6-2.6,.7-5.9-1.9-6.7-2.8-.8-6.1,.5-7.9,3.3-7.6,12.1-5.5,26.7,4.2,33.8,10.2,7.4,27.3,5.9,40.1-2.6,13.1-8.7,21.1-24.1,19.9-36.9-.6-7.4-3.5-13.9-6.2-20.4-2.9-7-5.8-14-8.6-21-6.4-15.7-12.9-31.3-19.3-46.9-.8-2-2.7-3.5-5.4-2.9-2.5,.5-5,2.4-5.7,4.8-1.2,4.4-2.7,8.9-4.6,13.2-.5,1.1,.3-.6-.2,.5-.3,.5-.5,1.1-.8,1.6l-1.5,3c-1.1,2.1-2.3,4.2-3.6,6.3s-2.6,4-4,5.9c-.4,.5-.7,1-1.1,1.5,.7-1-.2,.3-.4,.5-.8,1-1.6,2-2.4,2.9-3.2,3.9-6.7,7.5-10.5,11-2.3,2.2-2.3,5.9-.1,7.3,2.5,1.5,5.7,.7,8.2-1.6h0Z"/>
  </g>
</svg>