<?xml version="1.0" encoding="UTF-8"?>
<svg id="Layer_2" data-name="Layer 2" xmlns="http://www.w3.org/2000/svg" viewBox="0 0 189.59 317.9">
  <defs>
    <style>
      .cls-1 {
        fill: #db9e9f;
      }
    </style>
  </defs>
  <g id="Layer_1-2" data-name="Layer 1">
    <path class="cls-1" d="M6.74,106.43c.62-.55,1.25-1.07,1.92-1.57,.32-.24,.66-.47,1-.7,.16-.11,.34-.22,.51-.33,.58-.36-.48,.27,.11-.06,1.44-.8,2.92-1.5,4.47-2.05,.19-.07,1.1-.33,.46-.16,.38-.11,.75-.2,1.13-.29,.82-.2,1.66-.35,2.49-.47,.78-.11,1.55-.19,2.33-.25,.19-.02,.39-.03,.59-.03-.08,0-.58,0-.1,.01,.48,0,.93,0,1.38,0,1.73,.04,3.46,.24,5.16,.54,.4,.07,.79,.16,1.19,.24,.79,.15-.28-.09,.49,.12,.86,.23,1.7,.48,2.54,.75,1.63,.54,3.23,1.19,4.78,1.93,.38,.18,.75,.36,1.12,.56,.17,.09,1.07,.58,.49,.25,.79,.45,1.56,.92,2.32,1.41,13.69,8.93,21.45,24.96,27.96,39.78,7.61,17.3,14.64,34.89,21.35,52.58,6.79,17.89,13.18,35.94,19.16,54.14,5.94,18.08,11.49,36.3,16.61,54.64,.65,2.31,1.28,4.61,1.91,6.92,.56,2.03,1.99,3.62,4.23,3.51,2.24-.11,3.72-1.66,4.07-3.8,5.11-32.07,3.31-64.68-.4-96.68-3.74-32.28-9.44-64.3-12.21-96.71-1.41-16.46-2.19-33.93,2.44-49.93,1.17-4.04,2.67-7.99,4.56-11.75,.7-1.4,1.2-2.27,2.26-3.9,1-1.52,2.07-2.99,3.24-4.38,1.93-2.31,4.01-4.3,6.82-6.27,.29-.21,.59-.4,.89-.61,1.12-.77-.65,.34,.53-.33,.61-.35,1.22-.68,1.85-1,.74-.37,1.51-.7,2.28-1,.38-.14,.77-.29,1.15-.41-.7,.24,.51-.14,.54-.15,3.26-.84,5.27-.97,8.54-.27-.95-.21,.24,.09,.37,.13,.36,.12,.71,.25,1.06,.38,.59,.23,1.17,.5,1.73,.8-.85-.45,.25,.17,.35,.24,.33,.21,.65,.42,.96,.66,.64,.46,1.23,.97,1.83,1.49,.96,.82-.5-.58,.37,.35,.18,.19,.37,.39,.55,.59,.54,.61,1.04,1.23,1.53,1.88,.4,.54,.78,1.11,1.14,1.68-.42-.68,.26,.46,.27,.49,.26,.48,.5,.96,.73,1.46,.29,.62,.54,1.24,.78,1.88,.14,.38,.27,.76,.39,1.15-.24-.78,.12,.48,.13,.53,.16,.65,.29,1.31,.38,1.97,.05,.4,.11,.79,.14,1.19,.02,.16,.05,1.72,.06,.89,0,.66-.04,1.31-.11,1.97-.04,.39-.09,.78-.16,1.16-.02,.11-.33,1.35-.07,.42-.18,.63-.38,1.25-.62,1.86-.14,.37-.32,.72-.48,1.08-.24,.45-.24,.47-.02,.05-.1,.18-.2,.35-.32,.51-.38,.53-.73,1.07-1.16,1.58-.13,.15-.92,.89-.17,.2-.17,.15-.32,.3-.48,.45-.49,.44-1.01,.81-1.54,1.19,.85-.6,0,0-.18,.08-.28,.15-.57,.29-.86,.42-.29,.13-.59,.23-.88,.36-.96,.41,.84-.17-.17,.06-.51,.12-1.02,.24-1.55,.33-.32,.05-.63,.09-.95,.12-.2,.01-1.26,.04-.19,.04-.65,0-1.3-.02-1.94-.07s-1.3-.18-1.95-.29c-.22-.03-.78-.21,.11,.04-.32-.1-.65-.17-.97-.27-1.29-.4-2.54-.93-3.75-1.57,.92,.49-.53-.35-.79-.52-.58-.39-1.14-.8-1.68-1.24-.45-.37-.89-.75-1.31-1.17,.71,.69-.11-.15-.21-.25-.32-.35-.62-.71-.91-1.08-1.57-1.99-2.63-4.27-3.22-6.79-.37-1.55-.61-3.14-.72-4.75-.08-1.05-.07-2.55,.08-4.15,.33-3.69,.89-5.9,2.16-9.23,2.36-6.2,6.15-11.46,11.1-15.71,5.77-4.95,12.23-8.25,19.24-11.22,3.35-1.42,6.75-2.72,10.15-4,2.12-.81,3.03-3.61,2.17-5.6-.94-2.2-3.36-2.94-5.49-2.13-14.82,5.61-30.66,12.15-39.92,25.99-8.09,12.1-11.63,29.98-2.55,42.37,7.04,9.6,22.83,14.42,32.36,5.22,11.2-10.8,6.02-29.62-5.31-37.82-5.81-4.2-13.2-5.22-20.09-3.24-7.3,2.11-13.45,6.77-18.38,12.56-11.45,13.44-14.91,32.38-15.39,49.51-.5,17.93,1.65,35.92,3.85,53.64,2.2,17.72,4.7,34.18,6.98,51.28,4.49,33.46,7.99,67.18,4.41,100.95-.45,4.2-1,8.37-1.67,12.53,2.76-.1,5.52-.2,8.29-.3-5.26-19.26-10.94-38.4-17.08-57.39-6.07-18.77-12.56-37.4-19.49-55.86-6.91-18.4-14.21-36.67-22.01-54.7-6.98-16.14-15.2-33.5-29.59-44.13-11.62-8.59-28.59-12.47-41.76-4.57-1.72,1.03-3.34,2.16-4.85,3.48-1.71,1.52-2.15,4.12-.71,5.97,1.35,1.73,4.15,2.16,5.87,.65v-.02Z"/>
  </g>
</svg>