<?xml version="1.0" encoding="UTF-8"?>
<svg id="Layer_2" data-name="Layer 2" xmlns="http://www.w3.org/2000/svg" viewBox="0 0 924.77 304.75">
  <defs>
    <style>
      .cls-1 {
        fill: #ff94d0;
      }
    </style>
  </defs>
  <g id="Layer_1-2" data-name="Layer 1">
    <path class="cls-1" d="M5.13,149.43c3.84-3.83,9.14-6.05,14.35-6.58,5.99-.6,11.74,.35,17.33,2.68,11.94,4.99,20.66,16.27,27.7,26.88,8.58,12.93,16.55,26.31,24.3,39.75s15.43,27.55,22.61,41.61c7.22,14.13,14.08,28.44,20.57,42.91,.81,1.8,1.61,3.6,2.41,5.41,.53,1.19,2.22,1.7,3.39,1.38,1.32-.36,2.12-1.57,2.2-2.89,1.69-27.63-3.69-55.05-10.63-81.66-3.49-13.38-7.37-26.65-11.02-39.98s-7.14-26.43-9.44-39.9c-2.16-12.63-2.88-26.01,1.61-38.23,3.49-9.5,11.75-19.13,22.05-19.95,4.73-.38,8.82,1.24,12.18,4.58,.89,.89,1.43,1.53,2,2.38,.3,.44,.58,.89,.84,1.36,.16,.28,.3,.56,.44,.84,0-.01,.39,.85,.22,.43,.98,2.3,1.31,3.97,.98,6.38,.02-.15,.11-.47-.03,.1-.07,.3-.13,.6-.21,.89s-.17,.59-.28,.88c-.02,.05-.21,.53-.05,.15-.24,.57-.55,1.12-.88,1.64-.1,.16-.21,.32-.32,.48-.21,.28-.22,.31-.05,.07-.12,.14-.24,.29-.37,.43-1.28,1.42-2.67,2.26-4.19,2.77-.49,.16-.98,.3-1.48,.42-.23,.05-.46,.1-.69,.14-.06,.01-.98,.14-.32,.06-1.1,.13-2.21,.15-3.31,.08-.24-.02-.48-.04-.73-.06-.94-.07,.56,.12-.36-.05-.48-.09-.96-.17-1.44-.29-.53-.13-1.05-.27-1.56-.44-.23-.08-.47-.16-.7-.24-.18-.07-.37-.14-.55-.21,.26,.11,.23,.1-.1-.05-4.11-1.87-6.68-4.55-8.1-8.85-1.68-5.09-1.12-10.41,.75-15.5,4.08-11.13,14.64-18,24.78-23.21,2.73-1.4,5.5-2.72,8.28-4.04,1.46-.69,1.84-2.79,1.08-4.1-.88-1.5-2.64-1.77-4.1-1.08-11.82,5.61-24.42,11.76-31.89,23-6.57,9.88-8.85,24.72-.33,34.23,6.39,7.13,19.04,9.56,26.98,3.62,4.41-3.3,6.82-8.67,6.15-14.17s-3.66-10.41-7.9-13.82c-4.52-3.63-10.01-5.42-15.8-4.71-6.28,.78-11.92,3.84-16.49,8.17-9.81,9.29-13.5,23.08-13.76,36.22-.29,14.42,3.09,28.79,6.51,42.71s7.59,28.35,11.52,42.49c7.75,27.87,15.05,56.3,15.05,85.42,0,3.53-.11,7.06-.32,10.59l5.59-1.51c-6.56-14.88-13.51-29.59-20.83-44.1s-15.03-28.84-23.1-42.96-16.18-27.66-24.92-41.07c-7.6-11.64-16.6-23.76-29.46-29.94-11.22-5.4-25.96-6.48-36.56,1-1.36,.96-2.64,2.01-3.82,3.19-2.74,2.73,1.5,6.97,4.24,4.24h0Z"/>
    <path class="cls-1" d="M161.35,239.23c8.97-5.69,15.82-14.18,20.42-23.69,5.17-10.68,7.53-22.31,8.68-34.05,.69-7.09,.93-14.21,1.13-21.32h-6c.65,22.92,1.88,46.79,10.73,68.25,2.21,5.36,4.83,10.54,8.05,15.37s6.86,9.53,11.43,13.11c4.88,3.81,11.04,6.57,17.33,5.04s10-6.59,12.87-11.71c7.07-12.64,9.4-27.54,6.84-41.76-.29-1.6-2.23-2.5-3.69-2.1-1.68,.46-2.38,2.09-2.1,3.69,2.01,11.14,.49,23.04-4.28,33.32-2.08,4.47-4.76,9.88-9.41,12.15s-9.43-.04-13.26-2.85c-4.16-3.05-7.47-7.34-10.33-11.59s-5.46-9.05-7.51-13.91c-4.12-9.75-6.53-20.24-8.05-30.71-1.75-11.99-2.27-24.18-2.61-36.3-.11-3.86-5.89-3.87-6,0-.6,21.63-1.74,45.05-15.44,62.96-3.27,4.28-7.27,8.04-11.82,10.92-3.25,2.06-.24,7.26,3.03,5.18h0Z"/>
    <path class="cls-1" d="M234.86,182.38c5.18,13.3,22.91,15.46,34.05,8.52,6.82-4.25,11.24-11.49,13.91-18.89,2.93-8.12,3.89-16.88,4.4-25.44,1.2-20.07-1.21-40.24-5.43-59.85-2.07-9.59-4.51-19.14-7.4-28.52-2.4-7.8-5.99-16.52-13.76-20.35-7.17-3.54-16.75-2.71-20.89,4.92-2.07,3.81-2.42,8.26-2.46,12.51s.09,8.78,.34,13.15c1.02,17.98,4.25,35.85,9.57,53.05s12.59,33.52,21.76,48.84c4.65,7.76,9.8,15.21,15.37,22.34,5.36,6.85,11.56,13.33,19.87,16.47,14.78,5.59,30.73-2.98,39.65-14.74,11.25-14.83,10.45-34.94,6.55-52.21-1.03-4.54-2.29-9.02-3.66-13.47-1.14-3.68-6.93-2.11-5.79,1.6,5.1,16.53,9.22,35.01,2.95,51.81-2.27,6.09-6.57,11.65-11.8,15.84-2.2,1.76-5.52,3.75-8.05,4.77-1.57,.64-3.18,1.15-4.83,1.52-1.75,.4-2.7,.52-4.49,.58-3.32,.11-6.11-.33-9.31-1.62-3.46-1.4-6.53-3.67-9.24-6.21-5.88-5.52-10.65-12.31-15.18-18.94-9.42-13.79-17.26-28.69-23.24-44.28s-10.28-32.1-12.58-48.77c-1.13-8.17-1.74-16.42-1.9-24.66-.07-3.83-.31-7.9,.55-11.58,.36-1.54,.88-3,1.84-4.22,.46-.59,1.18-1.21,1.53-1.44,.32-.2,.64-.39,.98-.57,.49-.26,.24-.16,.77-.31,.36-.11,.72-.22,1.09-.3,.21-.05,.43-.09,.64-.12-.07,.01-.34,.04,.02,0,.83-.09,1.66-.08,2.49-.02,.38,.03,.28,0,.88,.12,.39,.07,.78,.17,1.16,.27,.75,.2,1.54,.47,2.02,.7,3.1,1.42,5.34,3.83,7.15,6.85,1.94,3.25,3.18,6.83,4.28,10.44,1.35,4.45,2.59,8.94,3.76,13.44,4.74,18.1,8.19,36.6,8.91,55.33,.35,9.07,.13,18.36-1.05,27.3-.94,7.13-2.71,14.53-6.42,20.77-1.79,3.02-4.02,5.74-6.84,7.91,.34-.26-.49,.34-.59,.4-.29,.19-.58,.38-.87,.56-.64,.38-1.29,.73-1.97,1.05-.18,.08-.36,.17-.54,.25,.06-.03,.35-.14,.03-.01s-.65,.25-.98,.37c-.76,.26-1.53,.49-2.3,.68-.68,.16-1.37,.3-2.06,.4,.52-.08-.4,.05-.54,.06-.4,.04-.8,.07-1.19,.09-.74,.04-1.49,.04-2.23,0-.35-.01-.69-.04-1.03-.07-.15-.01-.29-.03-.44-.04-.93-.07,.3,.05-.22-.02-1.38-.21-2.75-.54-4.06-1.01-.12-.04-1.08-.44-.6-.23-.3-.13-.6-.28-.89-.43-.62-.32-1.22-.67-1.8-1.06-.16-.11-.73-.53-.59-.42,.16,.13-.42-.37-.54-.48-.48-.44-.92-.9-1.34-1.39-.38-.44-.13-.15-.05-.05-.11-.15-.22-.3-.33-.45-.19-.27-.36-.55-.53-.83s-.33-.58-.48-.88c-.09-.17-.17-.35-.25-.52,.05,.12,.19,.47-.03-.1-.59-1.51-2.01-2.56-3.69-2.1-1.44,.4-2.69,2.17-2.1,3.69h0Z"/>
    <path class="cls-1" d="M344.1,94.14c2.85,15.5,9.77,29.8,15,44.56s9.32,30.49,11.95,46.2c1.46,8.76,2.47,17.59,3.05,26.45,.11,1.62,1.3,3,3,3,1.54,0,3.11-1.37,3-3-1.06-16.16-3.51-32.24-7.36-47.97-1.89-7.74-4.12-15.39-6.69-22.93s-5.56-14.92-8.42-22.36c-3.19-8.32-6.13-16.77-7.74-25.55-.29-1.59-2.23-2.5-3.69-2.1-1.68,.46-2.39,2.09-2.1,3.69h0Z"/>
    <path class="cls-1" d="M370.38,152.91c7.9-13.92,15.82-27.88,22.39-42.49,3.32-7.37,6.32-14.9,8.77-22.6s4.97-15.88,1.89-23.39c-2.6-6.36-9.15-11.58-16.32-9.55s-10.95,9.49-9.44,16.46c1.62,7.47,8.46,12.51,15.84,13.19,6.67,.62,12.9-2.88,16.91-8.02s6.25-11.34,7.48-17.65c1.61-8.19,2.09-16.62,1.31-24.93-.2-2.16-.49-4.31-.83-6.46-.26-1.6-2.25-2.49-3.69-2.1-1.7,.47-2.35,2.08-2.1,3.69,1.16,7.24,1.29,14.66,.49,21.95-.64,5.85-1.9,12.04-4.46,17.15-1.19,2.37-2.46,4.35-4.21,6.15-1.65,1.69-3.6,3.02-5.74,3.69-5.27,1.66-11.27-.36-14.04-5.16-2.53-4.39-1.33-10.05,3.5-12.01,1.83-.74,3.91-.43,5.81,.79s3.49,3.51,4.19,5.74c2.01,6.43-.69,13.64-2.67,19.75-2.19,6.76-4.79,13.39-7.7,19.87-6.61,14.77-14.6,28.86-22.58,42.91-1.91,3.36,3.27,6.39,5.18,3.03h0Z"/>
    <path class="cls-1" d="M370.38,154.94c7.99-3.11,16.63-1.67,24.23,2.1,8.33,4.13,14.85,10.69,20.88,17.64,3.19,3.67,6.24,7.46,9.41,11.14s6.27,7.56,10.18,10.32c4.15,2.94,9.3,2.84,13.64,.37s7.21-6.3,9.65-10.34c5.73-9.51,8.85-20.51,9.12-31.59,.09-3.86-5.91-3.86-6,0-.23,9.17-2.62,18.24-7.01,26.31-1.95,3.58-4.23,7.34-7.64,9.72-1.55,1.08-3.2,1.84-4.91,1.82s-3.33-.98-4.67-2.18c-3.48-3.1-6.52-6.78-9.52-10.33s-5.93-7.15-9-10.63c-6.06-6.87-12.81-13.32-21.09-17.43-8.86-4.4-19.37-6.39-28.85-2.7-1.51,.59-2.56,2.01-2.1,3.69,.4,1.44,2.17,2.69,3.69,2.1h0Z"/>
    <path class="cls-1" d="M532.88,113.91c-.28-7.48-7.9-11.06-14.34-12.25s-13.67-1.69-20.49-.91-13.58,2.61-19.44,6.27c-6.25,3.9-10.85,9.56-13.63,16.35-2.98,7.27-3.68,15.34-3.74,23.13s.42,15.68,4.45,22.29,10.47,9.83,17.73,10.65c7.11,.8,14.36-1.37,20.18-5.45,13.78-9.67,18.9-26.13,24.59-41.13,.74-1.95,1.5-3.89,2.32-5.81l-5.48-2.31c-2.04,6.2-3.84,12.49-5.36,18.84s-3.09,12.8-3.25,19.3c-.15,5.77,1.13,11.69,4.67,16.36,3.13,4.13,7.81,7.1,13.13,6.95,5.66-.16,11.03-3.42,12.85-8.93,.51-1.54-.59-3.28-2.1-3.69-1.63-.45-3.18,.55-3.69,2.1-.41,1.24-1.43,2.44-2.57,3.16-.94,.58-1.25,.71-2.15,.97-.41,.12-.82,.22-1.24,.3-.62,.12-.29,.05-.15,.03-.32,.04-.64,.06-.96,.06-1.72,.05-3.13-.28-4.79-1.25s-2.99-2.36-4.01-3.91c-2.58-3.95-3.22-8.61-2.96-13.36,.32-5.64,1.73-11.26,3.04-16.74,1.51-6.27,3.28-12.48,5.3-18.61,.46-1.4-.42-3.01-1.74-3.54-1.24-.5-3.15-.16-3.75,1.23-5.83,13.64-9.22,29.26-19.7,40.33-4.39,4.64-9.67,8-15.93,9.01-5.17,.84-11.45-.28-15.5-3.74-4.94-4.21-6.42-10.76-6.81-16.95-.43-6.86-.25-14.01,1.23-20.74s4.21-12.31,9.02-16.71c4.15-3.79,9.48-6.17,15.08-7.5,5.84-1.39,11.96-1.62,18.12-1.09,2.92,.25,5.59,.57,8.54,1.38,2.58,.71,4.97,1.66,6.64,3.63-.26-.3,.18,.25,.24,.36,.11,.17,.43,.81,.38,.7-.06-.14,.13,.49,.17,.64,.08,.33,.03,.03,.02-.04,.03,.21,.03,.43,.04,.63,.06,1.62,1.33,3,3,3,1.58,0,3.06-1.37,3-3h0Z"/>
    <path class="cls-1" d="M498.53,79.67c10.29-1.43,20.86-.74,30.91,1.85,3.74,.96,5.34-4.82,1.6-5.79-11.17-2.88-22.7-3.44-34.1-1.85-1.61,.22-2.48,2.27-2.1,3.69,.48,1.73,2.08,2.32,3.69,2.1h0Z"/>
    <path class="cls-1" d="M562.34,152.35c18.73-6.36,32.86-21.13,42.71-37.85,5.29-8.98,9.43-18.63,12.81-28.48,3.79-11.04,6.52-22.43,8.17-33.98s2.32-23.62,1.76-35.48c-.22-4.74-.44-10.03-3.78-13.76-4.06-4.53-10.36-2.94-14.62,.31s-7.53,7.26-10.56,11.42-5.34,8.23-7.45,12.66c-4.37,9.18-7.38,18.93-9.85,28.78-2.76,10.98-5.13,22.07-7.47,33.14-2.57,12.19-4.86,24.44-6.46,36.8s-2.66,23.81-2.05,35.65c.5,9.72,3.49,20.37,13.23,24.59s19.96,.95,28.45-3.54c8.65-4.58,16.56-10.96,23.26-18.06,6.74-7.13,12.47-15.26,16.83-24.05,2.21-4.45,4.11-9.08,5.63-13.81,.74-2.31,1.39-4.64,1.94-7,.68-2.89,1.33-5.99,.45-8.92-1.4-4.64-5.87-7.65-10.47-8.53s-9.7,.08-13.93,2.42c-8.21,4.54-13.79,14.18-12.78,23.62s7.47,17.93,16.15,21.78c9.18,4.07,19.81,2.71,28.12-2.81,4.07-2.7,7.51-6.23,10.04-10.41,2-3.31-3.18-6.33-5.18-3.03-4.27,7.05-12.12,12.12-20.23,12.63s-15.79-3.56-20.03-10.38c-2.08-3.36-3.17-7.02-2.96-10.94,.19-3.51,1.77-7.42,4.01-10.25,2.47-3.12,5.65-5.42,9.32-6.45s7.23-.78,10.23,1.37c1.04,.74,1.96,1.94,2.12,3.5,.24,2.25-.59,4.68-1.15,6.83-1.12,4.3-2.56,8.6-4.29,12.65-3.51,8.18-8.2,15.94-13.88,22.79-5.69,6.87-12.33,12.98-19.75,17.93s-15.34,8.93-23.94,8.47c-3.7-.2-7.32-1.61-10.02-4.48s-4.03-6.99-4.7-11.06c-.75-4.55-.64-9.63-.52-14.37,.14-5.67,.5-11.33,1.05-16.98,2.2-22.72,7.29-45.06,12.33-67.28,4.04-17.85,8.63-36.72,20.05-51.48,1.3-1.69,2.71-3.3,4.18-4.84s3.1-3.22,5-4.38c1.64-1.01,3.38-1.62,4.86-.76,.35,.2,.9,.78,1.14,1.2,.13,.23,.26,.45,.38,.69,.02,.03,.23,.51,.08,.16,.21,.51,.36,1.04,.5,1.57,.52,2,.56,3.63,.68,5.9,.14,2.76,.22,5.52,.23,8.29,.03,5.45-.19,10.9-.64,16.33-1.74,20.84-7.07,41.85-16.03,60.69-7.51,15.79-18.19,31-33.34,40.14-3.61,2.17-7.29,3.91-11.23,5.25-1.53,.52-2.54,2.06-2.1,3.69,.41,1.49,2.15,2.62,3.69,2.1h0Z"/>
    <path class="cls-1" d="M651.6,173.69c19.03-2.97,38.88-6.33,54.43-18.56,6.55-5.15,12.1-11.8,15.38-19.5,1.71-4.01,3.06-8.5,3.11-12.89,.03-2.89-1.19-5.21-3.5-6.91-1.71-1.26-3.68-2.18-5.68-2.86-7.96-2.67-17.16-.59-24,3.98-7.61,5.08-12.44,13.21-15.37,21.72-1.49,4.32-2.49,8.8-3.23,13.31-.82,5.04-1.35,10.15-1.21,15.27,.26,9.54,2.9,18.86,9.04,26.29,5.18,6.27,13.16,10.89,21.48,10.54,7.79-.33,15.79-4.6,19.47-11.65,.9-1.72,1.56-3.56,1.86-5.48,.26-1.6-.41-3.23-2.1-3.69-1.43-.39-3.43,.49-3.69,2.1-.52,3.24-1.84,5.63-4.08,7.81s-4.98,3.61-7.99,4.38c-.38,.1-.76,.18-1.14,.26-.13,.03-1,.18-.68,.13-.88,.12-1.77,.16-2.65,.16-.44,0-.89-.02-1.33-.06-.17-.01-.33-.03-.5-.05-.54-.06,.35,.06-.19-.02-.95-.15-1.88-.37-2.8-.65-3.18-.95-6.22-2.81-8.68-5.1-12.45-11.58-11.33-30.95-7.49-46.29,1.93-7.69,5.09-15.3,10.81-20.95,4.95-4.89,11.95-7.68,18.86-7.1,.78,.07,1.11,.12,1.97,.31,.91,.2,1.81,.47,2.68,.8,.59,.22,1.29,.57,2,.98,.64,.37,1.52,.8,1.91,1.45,.68,1.13,.07,3.26-.16,4.49-.34,1.82-.82,3.6-1.43,5.35-2.4,6.84-7.1,12.88-12.6,17.7-13.05,11.43-30.8,15.17-47.46,17.9-2.22,.36-4.43,.71-6.65,1.06-1.6,.25-2.49,2.26-2.1,3.69,.47,1.71,2.08,2.35,3.69,2.1h0Z"/>
    <path class="cls-1" d="M732.97,158.45c13.22,.1,26.47-2.21,38.9-6.69,12.59-4.53,24.31-11.16,34.68-19.62,10.39-8.48,19.19-18.88,25.83-30.53,6.7-11.74,11.3-24.72,13.53-38.05,2.26-13.52,2.21-27.32-.38-40.79-.32-1.65-.68-3.28-1.07-4.91-.49-2.03-2.73-2.58-4.41-1.79-18.27,8.56-34.65,20.99-48.35,35.76-14.28,15.38-25.72,33.25-34.17,52.44-9.15,20.78-15,42.86-18.07,65.34-1.44,10.53-2.87,21.39-2.02,32.03,.78,9.82,3.86,19.84,11.46,26.56,13.59,12.02,34.47,9.54,49.3,1.28,1.88-1.05,3.68-2.21,5.41-3.49,1.3-.96,1.96-2.6,1.08-4.1-.75-1.29-2.79-2.04-4.1-1.08-6.75,4.97-14.34,8.13-22.67,9.29-7.29,1.01-15.37,.08-21.78-3.92-3.14-1.96-6.01-4.89-8.06-8.37-2.32-3.93-3.58-8.34-4.27-12.86-1.47-9.67-.23-19.95,.93-29.65,2.58-21.67,7.78-43.14,16.02-63.37,7.59-18.62,18.03-36.2,31.21-51.42,12.62-14.58,27.66-27.04,44.73-36.08,2.11-1.12,4.24-2.18,6.4-3.19l-4.41-1.79c6.03,25.05,2.53,52.19-9.27,75.07-11.66,22.62-31.51,40.4-55.09,49.92-13.17,5.31-27.17,8.12-41.35,8.02-3.86-.03-3.87,5.97,0,6h0Z"/>
    <path class="cls-1" d="M815.56,187.81c5.56,6.72,14.01,10.32,22.58,11.01,8.72,.7,17.48-2.09,24.7-6.92,3.73-2.5,7.14-5.48,10.12-8.85s6.09-7.06,6.85-11.48c.4-2.31,.17-4.7-1.24-6.65-1.58-2.19-4.04-3.18-6.57-3.85-4.45-1.17-9.16-1.44-13.72-.87-9.61,1.19-18.39,5.46-25.72,11.72-7.01,5.98-12.51,13.64-16.97,21.66-4.85,8.72-9.01,18.17-9.82,28.23-.69,8.69,1.75,17.65,6.9,24.7s12.35,12.07,20.88,13.46c8.17,1.33,16.97-.24,23.77-5.11,1.7-1.22,3.28-2.57,4.68-4.12,1.09-1.2,1.19-3.06,0-4.24-1.1-1.1-3.15-1.21-4.24,0-4.65,5.15-11.3,7.84-18.09,7.96-7,.13-13.62-2.47-18.71-7.44s-8.43-11.82-9.13-18.63c-.9-8.66,1.75-17.18,5.42-24.94,6.87-14.54,17.12-29.44,32.86-35.16,3.8-1.38,7.77-2.25,11.82-2.36,1.89-.05,3.81,.02,5.68,.34,1.74,.29,3.9,.57,5.41,1.54,.13,.08,.59,.46,.57,.43,.13,.15,.26,.41,.34,.58-.03-.08-.11-.25-.01,.06,.16,.53,.11,1.19-.04,1.81-.41,1.7-1.29,3.18-2.33,4.62-2.25,3.12-4.93,5.96-7.84,8.46-5.58,4.8-12.83,8.42-20.01,9.04-7.06,.61-14.4-1.08-19.99-5.4-1.44-1.11-2.74-2.43-3.9-3.84-1.03-1.25-3.17-1.07-4.24,0-1.24,1.24-1.04,2.99,0,4.24h0Z"/>
    <path class="cls-1" d="M883.64,225.87c15.38-2.81,29.75-10.8,40.29-22.34l-5.01-2.92c-2.15,12.76-4.31,25.52-6.46,38.29-1.08,6.38-2.15,12.76-3.23,19.14s-1.91,12.27-3.17,18.34c-1.04,5.02-2.63,10.1-5.98,14-3.01,3.51-6.89,6.16-11.28,7.44-8.44,2.46-18.04-1.03-22.63-8.72-4.79-8.02-1.93-19.17,6.29-23.65,3.39-1.85,.37-7.03-3.03-5.18-9.1,4.95-13.58,16.53-10.8,26.41,2.94,10.44,13.35,17.71,24.03,17.96s21.74-7.09,26.21-17.11c2.62-5.89,3.5-12.27,4.57-18.57,1.16-6.87,2.32-13.74,3.48-20.62,2.6-15.38,5.19-30.76,7.79-46.14,.22-1.33-.15-2.67-1.38-3.39-1.11-.65-2.74-.51-3.64,.47-9.92,10.86-23.18,18.16-37.65,20.8-1.59,.29-2.5,2.23-2.1,3.69,.46,1.68,2.09,2.39,3.69,2.1h0Z"/>
    <path class="cls-1" d="M189.08,116.37c-6.55-.3-12.57,4.08-14.95,10.06-1.29,3.24-1.13,6.86-.2,10.18,.51,1.82,1.25,3.58,2.04,5.3s1.71,3.51,3.34,4.67c1.49,1.06,3.24,1.32,5.01,1.54s3.68,.34,5.52,.16c3.61-.36,6.92-1.67,9.53-4.22,2.32-2.26,3.9-5.16,5.23-8.07,1.4-3.06,2.75-6.16,3.17-9.52,.49-3.9-.79-7.72-4.1-10.01-3.03-2.1-6.98-2.25-10.53-2.18-3.86,.08-3.87,6.08,0,6,2.18-.04,4.6-.08,6.32,.67,1.86,.81,2.5,2.24,2.43,4.21-.07,2.1-.98,4.44-1.86,6.44-1,2.27-2.04,4.58-3.49,6.6-1.18,1.64-2.77,3.05-4.83,3.67-2.37,.72-5.01,.64-7.43,.24-1.21-.2-1.68-.38-2.25-1.4-.63-1.14-1.16-2.36-1.62-3.58s-.88-2.52-1.09-3.83c-.2-1.18-.17-2.59,.03-3.46,1-4.48,5.27-7.67,9.73-7.47,1.62,.07,3-1.43,3-3,0-1.69-1.37-2.93-3-3h0Z"/>
    <path class="cls-1" d="M195.94,127.67c-1.02-14.84-2.23-32.36,8.49-44.29,1.08-1.2,1.19-3.05,0-4.24-1.1-1.1-3.16-1.21-4.24,0-11.95,13.3-11.39,31.83-10.24,48.53,.11,1.62,1.3,3,3,3,1.54,0,3.11-1.37,3-3h0Z"/>
  </g>
</svg>